<svg width="251" height="60" viewBox="0 0 251 60" fill="none" xmlns="http://www.w3.org/2000/svg">
<g clip-path="url(#clip0_571_122)">
<path d="M69.406 36.889C69.406 22.2856 79.0797 14.6114 89.1683 14.6114C95.1536 14.6114 99.9906 16.7562 103.104 20.9626V15.7608H113.436V57.9335H103.104V52.8152C99.9906 56.9382 95.1536 59.0894 89.1683 59.0894C79.0861 59.0894 69.406 51.4151 69.406 36.889ZM91.6249 49.3474C98.3505 49.3474 103.104 44.8072 103.104 36.889C103.104 28.9709 98.3505 24.347 91.6249 24.347C84.8994 24.347 80.1454 28.8872 80.1454 36.889C80.1454 44.8909 84.9822 49.3474 91.6249 49.3474ZM142.789 24.347C137.544 24.347 132.783 27.4808 132.783 34.4936V57.9271H122.452V15.7672H132.783V21.3801C136.146 16.8399 141.226 14.6114 146.228 14.6114C155.411 14.6114 161.645 20.8021 161.645 32.1881V57.9335H151.314V34.4936C151.314 27.4808 147.792 24.347 142.789 24.347ZM169.686 0.816246H180.017V57.9328H169.686V0.816246ZM192.154 15.7601H202.976L191.171 34.5763L204.374 57.9262H192.728L180.017 35.3982L192.154 15.7601ZM205.516 36.889C205.516 22.2856 216.505 14.6114 227.818 14.6114C239.132 14.6114 250.037 22.2856 250.037 36.889C250.037 51.4924 239.049 59.0894 227.818 59.0894C216.588 59.0894 205.516 51.4151 205.516 36.889ZM227.818 49.3474C234.461 49.3474 239.298 44.8072 239.298 36.889C239.298 28.9709 234.461 24.347 227.818 24.347C221.176 24.347 216.256 28.8872 216.256 36.889C216.256 44.8909 221.093 49.3474 227.818 49.3474ZM45.6955 12.2408H34.4265V23.582H45.6955V12.2408ZM34.4192 23.5884H23.1501V34.9295H34.4192V23.5884ZM45.6955 34.9352H34.4265V46.2763H45.6955V34.9352ZM34.4131 12.2349V0.900424H0.59964V57.6249H34.4131V46.284H11.8687V12.2349H34.4131ZM52.9567 0.745605H63.2877V58.5105H52.9567V0.745605Z" fill="#F2F2F2"/>
</g>
<defs>
<clipPath id="clip0_571_122">
<rect width="249.438" height="58.5801" fill="white" transform="translate(0.59964 0.745605)"/>
</clipPath>
</defs>
</svg>
