<svg width="151" height="112" viewBox="0 0 151 112" fill="none" xmlns="http://www.w3.org/2000/svg">
<g clip-path="url(#clip0_572_143)">
<path d="M124.051 46.4315C123.655 47.0051 123.422 47.3397 123.19 47.6743C120.537 51.6757 117.446 55.3679 113.974 58.6821C112.523 60.0892 110.673 61.0134 108.677 61.3285C106.682 61.6435 104.637 61.3341 102.824 60.4425C102.194 60.1218 101.608 59.7221 101.079 59.2529C100.551 58.7502 100.05 58.219 99.5787 57.6619C99.1121 58.6684 98.6306 59.6272 98.2145 60.6159C98.1019 60.9768 97.8549 61.2805 97.5248 61.4641C97.1946 61.6477 96.8065 61.6971 96.441 61.602C95.5182 61.4785 94.6303 61.1679 93.8315 60.6894C93.0326 60.2108 92.3395 59.5743 91.7945 58.8186C91.3751 58.2654 91.1092 57.6109 91.0239 56.9215C90.9386 56.2322 91.0369 55.5326 91.3089 54.8935C95.8251 43.213 101.408 31.9745 107.988 21.3212C112.008 14.7288 116.469 8.40409 120.687 1.9278C120.97 1.44757 121.391 1.06331 121.895 0.824518C122.398 0.585731 122.962 0.503362 123.512 0.588022C124.44 0.652651 125.346 0.90261 126.176 1.32317C127.006 1.74373 127.744 2.32637 128.346 3.03678C128.495 3.17139 128.615 3.33489 128.699 3.51736C128.783 3.69984 128.829 3.89749 128.834 4.09835C128.84 4.2992 128.805 4.49909 128.731 4.68588C128.657 4.87268 128.546 5.0425 128.404 5.18507C121.757 14.1267 115.637 23.4496 110.076 33.106C109.151 34.7145 108.247 36.3349 107.364 37.9667C107.188 38.3496 107.039 38.7449 106.919 39.1494L107.179 39.3174C107.507 38.9377 107.861 38.5772 108.158 38.1784C111.841 33.0765 116.115 28.4297 120.89 24.3353C122.719 22.6219 124.911 21.3441 127.302 20.5973C128.375 20.3307 129.496 20.3148 130.576 20.5509C133.19 21.1696 134.123 23.2414 133.456 26.4003C132.285 31.1557 130.419 35.7118 127.917 39.921C126.883 41.8153 125.748 43.6536 124.702 45.4468L124.051 46.4315ZM101.905 54.3527C101.898 56.1596 103.022 56.9012 104.497 56.0694C105.603 55.427 106.606 54.6202 107.471 53.6767C113.347 47.3322 118.235 40.1373 121.969 32.3344C122.756 30.5138 123.423 28.6432 123.964 26.7349C124.059 26.5786 124.092 26.3924 124.057 26.2128C124.023 26.0331 123.922 25.8729 123.776 25.7632C123.63 25.6536 123.448 25.6024 123.266 25.6197C123.084 25.637 122.915 25.7215 122.792 25.8568C122.234 26.232 121.721 26.6711 121.264 27.1651C113.92 35.2703 107.5 44.1681 102.122 53.6944C102.02 53.9015 101.947 54.1216 101.905 54.3486V54.3527ZM67.9605 41.254C70.7522 35.1555 74.5537 29.5734 79.2043 24.7437C80.8024 22.9015 82.7867 21.4349 85.0158 20.4485C86.0327 20.0751 87.1137 19.9085 88.1957 19.9585C89.2777 20.0084 90.3388 20.2739 91.3171 20.7394C91.8288 20.951 92.3759 21.0636 92.9296 21.0712C95.632 21.0917 98.6592 23.5855 98.7015 26.1859C98.7269 27.9515 98.4793 29.7104 97.9676 31.4003C94.952 41.7214 89.0858 50.98 81.0446 58.1098C79.5194 59.3338 77.8351 60.3446 76.038 61.1144C75.0826 61.5225 74.036 61.6692 73.0054 61.5396C71.9747 61.41 70.9969 61.0088 70.1719 60.3769C68.942 59.7382 67.8588 58.8495 66.9916 57.7677C66.1243 56.6859 65.4921 55.4349 65.1353 54.0946C64.7992 52.0814 64.9332 50.0176 65.5268 48.0649C65.8201 46.8357 66.2089 45.6421 66.5991 44.2873L67.9605 41.254ZM72.5716 54.7501C72.8444 55.3142 72.9917 56.1227 73.4406 56.3685C73.7331 56.4384 74.0375 56.4417 74.3315 56.3781C74.6254 56.3145 74.9014 56.1857 75.139 56.0011C76.1034 55.2929 76.986 54.4794 77.7705 53.5756C82.1802 48.2768 85.887 42.4295 88.7987 36.1789C90.4756 33.1474 91.5895 29.8366 92.0865 26.4071C92.1356 25.8882 91.9651 25.0414 91.6336 24.8721C91.3572 24.8137 91.0714 24.8167 90.7964 24.8809C90.5213 24.9451 90.2636 25.0689 90.0415 25.2435C89.2694 25.8222 88.5699 26.4921 87.9584 27.2389C82.7004 33.6493 78.2794 40.7041 74.802 48.2329C73.7386 50.282 72.9868 52.4787 72.5716 54.7501Z" fill="white"/>
<path d="M10.6845 93.6105C6.17035 92.3568 3.562 89.0599 1.68758 85.0556C0.384769 82.2709 0.798123 80.8369 3.16501 78.8743C6.23775 76.486 9.60847 74.5091 13.1919 72.9935C21.3639 69.3271 29.764 66.1931 38.3396 63.6109C38.7058 63.5251 39.0498 63.3626 39.3486 63.134C39.6475 62.9054 39.8946 62.616 40.0735 62.2848C43.1948 56.4244 46.3734 50.5955 49.477 44.7256C53.1958 37.6921 56.8573 30.6285 60.5488 23.5814C60.8749 22.9572 61.3237 22.3918 61.5897 21.7472C61.8423 21.0973 62.3202 20.5602 62.936 20.2342C63.5518 19.9082 64.2642 19.815 64.9429 19.9717C66.0615 20.042 67.1501 20.3628 68.1283 20.9105C69.1065 21.4582 69.9494 22.2188 70.5948 23.1361C70.7994 23.3468 70.9261 23.6211 70.9539 23.9136C70.9817 24.2062 70.9089 24.4994 70.7476 24.745C66.4681 31.2158 62.9567 38.1291 59.3183 44.9578C56.9596 49.3868 54.6568 53.8487 52.3336 58.2968C52.114 58.7175 51.9243 59.1545 51.7033 59.638C53.7496 59.1969 64.4696 57.0336 66.4231 56.7932C68.2385 56.5418 70.0691 56.4164 71.9017 56.4176C72.5061 56.4272 73.3519 56.531 73.3737 57.3463C73.3983 58.1903 72.6589 58.5755 71.914 58.7639C68.689 59.597 56.6459 62.252 53.425 63.1042C51.9726 63.3076 50.5684 63.7702 49.2792 64.4699C48.2927 65.499 47.4915 66.6911 46.9109 67.9935C43.4101 73.8382 39.1432 79.187 34.2238 83.8975C30.1895 87.8228 25.2793 90.7296 19.8997 92.3773C17.9898 92.914 16.0049 93.1339 14.0554 93.4999C13.9122 93.5286 13.7717 93.5805 13.6298 93.6214C12.6476 93.6123 11.6658 93.6087 10.6845 93.6105ZM35.1474 69.7184L34.9796 69.5259C34.7859 69.5969 34.5881 69.6625 34.3998 69.7389C31.3467 71.0651 28.2609 72.3243 25.2501 73.7405C20.4178 75.8266 15.8533 78.486 11.6544 81.6618C10.4895 82.596 9.48131 83.7109 8.66821 84.9641C7.70099 86.4814 8.66821 87.8321 10.4771 87.772C13.143 87.6268 15.7397 86.8693 18.0662 85.5582C22.2338 83.2647 25.9751 80.2691 29.1258 76.7028C31.2076 74.4466 33.1516 72.0511 35.1474 69.7184ZM71.4188 16.1709C70.6275 16.214 69.8379 16.0602 69.1204 15.7233C68.403 15.3864 67.78 14.8769 67.3071 14.2403C66.8343 13.6036 66.5263 12.8597 66.4106 12.0748C66.2949 11.29 66.3751 10.4887 66.6441 9.74243C67.0912 8.23861 67.9747 6.90179 69.1824 5.90184C70.3902 4.90189 71.8676 4.28395 73.4269 4.12655C74.2148 4.02562 75.0155 4.12308 75.7562 4.41011C76.497 4.69713 77.1546 5.16465 77.6694 5.77031C78.1841 6.37596 78.5398 7.10062 78.7042 7.87863C78.8686 8.65665 78.8365 9.46343 78.6109 10.2259C78.198 11.853 77.2784 13.3062 75.9853 14.3751C74.6923 15.444 73.0928 16.0729 71.4188 16.1709ZM76.083 91.1263L72.3997 91.4827C72.3083 92.4264 72.2769 93.3456 72.12 94.2442C71.8386 95.7924 71.2366 97.2644 70.3527 98.5656C69.4688 99.8668 68.3226 100.968 66.9879 101.799C63.5909 104.126 59.4917 105.198 55.3922 104.831C53.6868 104.758 52.0374 104.2 50.6365 103.224C49.2356 102.247 48.1408 100.892 47.4798 99.3165C47.1756 98.7123 47.0833 98.0232 47.2177 97.3601C47.352 96.6969 47.7053 96.0983 48.2205 95.6605C49.5448 94.4398 51.1133 93.5152 52.822 92.9481C56.4126 91.6425 60.1444 90.7651 63.9402 90.3341C64.8952 90.2071 65.8501 90.102 67.0097 89.9599C66.464 88.7704 66.0398 87.6382 65.4531 86.5838C64.5446 84.9586 63.4737 83.4235 62.5788 81.7888C62.0727 80.8605 61.688 79.8708 61.4342 78.8443C61.1463 77.7142 61.1952 76.5245 61.5748 75.4219C61.9545 74.3193 62.6482 73.3522 63.5705 72.6397C65.5489 70.8004 68.0078 69.5604 70.6617 69.0636C73.3157 68.5669 76.0559 68.8337 78.5645 69.8332C79.1235 70.0456 79.6481 70.3397 80.1211 70.7059C80.4151 70.873 80.6698 71.1015 80.868 71.3758C81.0662 71.6502 81.2031 71.9639 81.2696 72.2958C81.3361 72.6278 81.3306 72.9701 81.2534 73.2997C81.1762 73.6293 81.0292 73.9385 80.8223 74.2062C80.4824 74.8075 80.0396 75.3442 79.514 75.7918C78.4731 76.6195 77.3545 77.3515 76.2399 78.0767C75.8636 78.2625 75.4665 78.4027 75.0571 78.4946L74.9439 78.3116C75.1117 78.1095 75.2822 77.9101 75.4459 77.7039C76.2096 76.8454 76.916 75.9375 77.5604 74.9861C78.69 73.0959 78.1061 72.0047 75.9234 71.7206C74.334 71.5894 72.7392 71.901 71.3156 72.6207C69.892 73.3404 68.6949 74.4403 67.8569 75.7987C67.4644 76.4819 67.2345 77.2465 67.1851 78.0331C67.1356 78.8197 67.2679 79.6072 67.5718 80.3343C68.1556 81.8024 68.9264 83.2023 69.6181 84.6254C70.3534 86.1577 71.0982 87.6833 71.8103 89.2265C71.8484 89.366 71.9347 89.4873 72.0539 89.5689C72.1732 89.6505 72.3175 89.6869 72.4611 89.6718C73.7742 89.6426 75.0878 89.6449 76.4009 89.6786C76.8374 89.6922 76.9288 89.4382 77.083 89.1541C78.9929 85.6415 80.9137 82.1261 82.8549 78.6271C82.925 78.4412 83.0311 78.2711 83.167 78.1263C83.3029 77.9816 83.4661 77.8652 83.6471 77.7837C83.8281 77.7022 84.0234 77.6574 84.2217 77.6516C84.4201 77.6459 84.6176 77.6794 84.803 77.7503C85.731 77.9591 86.5692 78.4568 87.1972 79.172C87.276 79.2447 87.3397 79.3323 87.3844 79.4299C87.4292 79.5274 87.4541 79.6328 87.4578 79.7401C87.4615 79.8473 87.4438 79.9542 87.4059 80.0546C87.3679 80.155 87.3104 80.2468 87.2367 80.3247C85.6603 82.7272 84.0996 85.1401 82.5548 87.5631C82.4238 87.7971 82.3089 88.0399 82.211 88.2896L82.3474 88.4003C82.5371 88.1776 82.7444 87.9687 82.919 87.7338C84.8044 84.971 87.0057 82.4381 89.4781 80.1868C90.4245 79.3885 91.465 78.7093 92.5762 78.1641C93.2287 77.8858 93.9496 77.8097 94.6457 77.9456C96.1368 78.2188 96.6634 79.3373 96.3251 81.1715C95.8098 83.6307 94.9014 85.9905 93.6348 88.1599C91.9212 91.5108 89.6095 94.5195 86.8138 97.0371C85.8559 97.8582 84.7768 98.5257 83.6148 99.0161C82.831 99.3466 81.9624 99.4181 81.1352 99.2201C80.3081 99.0221 79.5657 98.565 79.0161 97.9153C78.8578 97.7541 78.7077 97.5889 78.4472 97.3116C77.7255 98.9164 77.0229 100.43 76.3572 101.955C75.5387 103.83 74.7502 105.719 73.948 107.601C73.8488 107.962 73.6151 108.271 73.2951 108.465C72.975 108.658 72.5931 108.722 72.2278 108.642C71.5309 108.528 70.8621 108.282 70.2579 107.917C70.021 107.815 69.8102 107.661 69.6412 107.466C69.4721 107.272 69.3493 107.041 69.2818 106.792C69.2144 106.543 69.2041 106.282 69.2517 106.029C69.2993 105.775 69.4035 105.536 69.5567 105.328C71.6239 100.812 73.6984 96.2983 75.7802 91.7886C75.8593 91.6247 75.9466 91.4404 76.083 91.1263ZM66.8556 92.3636C65.6946 92.6286 64.6428 92.8416 63.6047 93.1107C60.2581 93.8386 57.0421 95.0733 54.0675 96.7722C53.1862 97.3076 52.4054 97.9936 51.7606 98.7989C51.5008 99.0497 51.3253 99.3751 51.2583 99.7301C51.1914 100.085 51.2363 100.452 51.3869 100.781C51.5375 101.109 51.7863 101.382 52.0988 101.563C52.4114 101.743 52.7724 101.822 53.1317 101.789C55.234 102.005 57.358 101.73 59.336 100.985C61.314 100.239 63.0919 99.0442 64.5296 97.4933C65.8319 96.0775 66.6466 94.2811 66.8542 92.3677L66.8556 92.3636ZM91.1247 81.0076L90.815 80.8082C90.313 81.2766 89.7755 81.7137 89.3144 82.2203C85.6895 86.2967 82.4579 90.7071 79.6627 95.3928C79.5263 95.6127 79.4594 96.0839 79.5863 96.2122C79.7028 96.3192 79.8434 96.3964 79.9961 96.4373C80.1488 96.4781 80.3092 96.4815 80.4635 96.4471C81.3329 96.0473 82.142 95.5274 82.8672 94.9025C86.4422 91.3309 89.1769 87.0064 90.8723 82.2436C90.9881 81.8402 91.0716 81.4283 91.122 81.0117L91.1247 81.0076ZM104.355 90.2672C104.207 90.4912 104.064 90.7193 103.913 90.9419C102.336 93.2636 100.775 95.5976 99.1708 97.9071C98.764 98.4378 98.3127 98.9326 97.8216 99.3862C97.4986 99.7992 97.0493 100.095 96.5424 100.228C96.0356 100.361 95.4992 100.324 95.0154 100.122C94.4991 99.9146 94.0531 99.5629 93.7306 99.109C93.408 98.6551 93.2223 98.118 93.1956 97.5616C93.0745 96.0168 93.2761 94.4638 93.7876 93.0014C95.3336 87.8309 98.2354 83.1696 102.191 79.5025C102.815 78.8141 103.61 78.3039 104.495 78.0241C105.38 77.7443 106.324 77.705 107.229 77.9101C107.99 78.1543 108.704 78.5236 109.344 79.0027C109.859 79.3591 110.219 79.4028 110.521 78.8456C110.653 78.6026 110.858 78.4066 111.106 78.2843C111.354 78.1621 111.634 78.1196 111.907 78.1628C112.883 78.2061 113.805 78.6249 114.48 79.3318C114.59 79.4129 114.682 79.5169 114.749 79.6366C114.815 79.7564 114.856 79.8891 114.867 80.0257C114.878 80.1624 114.859 80.2998 114.812 80.4287C114.766 80.5576 114.692 80.6749 114.596 80.7727C111.46 85.1619 109.031 90.0165 107.398 95.1593C106.953 96.8209 106.634 98.5137 106.443 100.223C106.307 101.122 106.498 101.275 107.413 101.276C111.192 101.244 114.961 101.669 118.638 102.541C120.532 102.935 122.343 103.656 123.991 104.67C126.342 106.233 126.303 108.013 123.848 109.404C121.446 110.712 118.721 111.302 115.994 111.106C112.417 111.064 108.963 109.789 106.216 107.495C105.448 106.834 104.765 106.082 104.18 105.255C104.001 104.915 103.709 104.648 103.355 104.501C103 104.354 102.606 104.335 102.239 104.448C97.6873 105.265 93.2597 106.665 89.0648 108.613C87.9325 109.159 86.8534 109.842 85.7784 110.498C85.3269 110.771 85.0677 110.711 85.0158 110.207C84.955 109.731 84.9675 109.248 85.0527 108.776C85.1868 107.672 85.6249 106.628 86.3181 105.76C87.0112 104.891 87.932 104.233 88.9774 103.859C91.8265 102.877 94.7714 102.199 97.7629 101.838C99.0412 101.67 100.325 101.549 101.609 101.428C102.082 101.386 102.34 101.19 102.321 100.697C102.21 97.1814 102.942 93.6901 104.456 90.5158C104.476 90.4553 104.487 90.3923 104.49 90.3287C104.444 90.3104 104.399 90.2899 104.355 90.2672ZM107.007 104.189C107.4 104.775 107.831 105.335 108.295 105.867C109.434 106.961 110.809 107.782 112.313 108.265C113.817 108.748 115.412 108.882 116.975 108.655C117.68 108.58 118.36 108.353 118.969 107.992C119.18 107.902 119.36 107.753 119.487 107.562C119.613 107.371 119.681 107.147 119.681 106.918C119.681 106.688 119.613 106.464 119.487 106.273C119.36 106.082 119.18 105.933 118.969 105.843C118.524 105.561 118.045 105.334 117.544 105.169C114.45 104.266 111.233 103.859 108.012 103.961C107.67 104.003 107.333 104.079 107.005 104.188L107.007 104.189ZM97.7411 96.4854C97.9049 96.4302 98.063 96.3593 98.2131 96.2737C98.4014 96.1057 98.5801 95.9282 98.7588 95.7438C102.823 91.4185 105.716 86.2629 108.949 81.3435C109.008 81.2405 109.043 81.1259 109.052 81.0079C109.06 80.8899 109.043 80.7713 109.001 80.6607C108.923 80.5841 108.827 80.5289 108.721 80.5002C108.615 80.4715 108.504 80.4704 108.398 80.4968C107.838 80.6775 107.32 80.9707 106.876 81.3586C105.487 82.921 104.097 84.4997 102.873 86.1837C100.884 88.8082 99.2969 91.7145 98.1626 94.8069C97.9935 95.2849 97.9116 95.7984 97.7411 96.4854Z" fill="white"/>
<path d="M149.541 87.0729C148.741 85.9632 147.625 85.1208 146.339 84.6556C145.326 84.2164 144.201 84.1086 143.123 84.3475C142.045 84.5863 141.07 85.1597 140.337 85.9858C139.318 87.1078 138.622 88.4849 138.322 89.971C138.007 91.2074 138.083 92.5115 138.542 93.7022C138.682 94.0275 138.874 94.3278 139.111 94.5913C139.293 94.8043 139.446 94.7429 139.52 94.4656C139.593 94.1884 139.622 93.9193 139.693 93.6571C140.288 91.4942 141.376 89.4989 142.872 87.8282C143.559 86.9665 144.485 86.327 145.533 85.9899C145.734 85.9049 145.952 85.8689 146.17 85.8847C146.387 85.9005 146.598 85.9678 146.784 86.081C146.971 86.1942 147.128 86.3501 147.242 86.5358C147.357 86.7215 147.426 86.9318 147.443 87.1494C147.475 87.3545 147.486 87.5623 147.474 87.7695C147.396 89.0161 147.012 90.2243 146.357 91.2876C145.104 93.5175 143.355 95.4285 141.246 96.8721C139.925 97.892 138.332 98.4979 136.669 98.6134C135.99 98.6805 135.305 98.6019 134.66 98.3829C134.014 98.1639 133.423 97.8094 132.925 97.3432C132.071 96.4321 131.611 95.2202 131.646 93.9713C131.599 91.911 132.093 89.8745 133.077 88.0645C133.356 87.5359 133.545 87.4704 134.105 87.6698C134.573 87.8536 135.078 87.9247 135.578 87.8772C136.079 87.8298 136.561 87.6651 136.986 87.3966C138.313 86.5563 139.481 85.4873 140.435 84.2391C141.155 83.3673 141.723 82.3801 142.115 81.3191C142.165 81.1853 142.189 81.0426 142.184 80.8995C142.178 80.7565 142.145 80.6159 142.084 80.486C141.877 79.9588 141.566 79.4786 141.17 79.0739C140.773 78.6692 140.3 78.3483 139.778 78.1301C139.194 77.9394 138.596 77.7933 137.991 77.6931H137.645C137.066 77.7656 136.508 77.9591 136.008 78.2613C135.232 78.7933 134.522 79.4169 133.894 80.1187C133.737 80.2679 133.59 80.4271 133.453 80.5953C131.924 82.4937 130.431 84.4212 128.973 86.3778C126.897 89.3711 124.56 92.1737 121.988 94.7524C120.906 95.8924 119.577 96.7693 118.103 97.3159C116.401 97.854 115.401 97.0728 115.581 95.322C115.634 94.7264 115.762 94.14 115.961 93.5766C117.505 89.6684 119.758 86.0805 122.608 82.9949C123.378 82.1739 124.216 81.4201 125.114 80.7414C125.32 80.5748 125.733 80.669 126.052 80.6417C126.022 80.9531 126.095 81.3246 125.947 81.5677C124.791 83.5136 123.292 85.2339 121.523 86.6455C120.441 87.4991 120.424 87.723 121.566 88.5397C121.808 88.7118 122.077 88.8457 122.335 88.9959C122.579 89.149 122.867 89.2174 123.153 89.1905C123.44 89.1636 123.71 89.0429 123.921 88.847C125.96 87.2541 127.653 85.2619 128.897 82.9921C129.063 82.7429 129.162 82.4549 129.185 82.1561C129.207 81.8573 129.152 81.5577 129.025 81.2864C128.842 80.841 128.607 80.4184 128.327 80.0271C127.835 79.3774 127.209 78.8414 126.492 78.4556C125.775 78.0697 124.983 77.8432 124.171 77.7913C123.358 77.7395 122.544 77.8636 121.784 78.1551C121.023 78.4467 120.335 78.8989 119.765 79.4809C116.071 82.847 113.275 87.0832 111.63 91.8052C110.955 93.4116 110.777 95.1837 111.118 96.8925C111.311 97.6122 111.666 98.278 112.156 98.8386C112.647 99.3993 113.259 99.8399 113.946 100.127C114.632 100.413 115.376 100.538 116.119 100.492C116.861 100.446 117.584 100.23 118.23 99.8603C120.32 98.6317 122.183 97.0516 123.737 95.1895C124.613 94.2157 125.434 93.1955 126.216 92.2709L128.834 88.3772C128.535 89.1889 128.332 90.0327 128.228 90.8915C128.215 90.9453 128.195 90.9972 128.168 91.0459V92.5686C128.217 92.9196 128.256 93.2747 128.311 93.6244C128.45 94.773 128.856 95.8728 129.498 96.8351C130.139 97.7974 130.998 98.5951 132.004 99.1638C133.145 99.7889 134.384 100.213 135.667 100.419C137.764 100.819 139.933 100.531 141.854 99.5994C143.931 98.6149 145.778 97.2046 147.277 95.4599C148.634 94.0216 149.608 92.2654 150.111 90.3521C150.264 89.7972 150.292 89.2155 150.193 88.6486C150.095 88.0817 149.872 87.5436 149.541 87.0729ZM138.307 80.6745C138.612 80.3957 138.943 80.1468 139.296 79.9315C139.452 79.8766 139.618 79.8538 139.783 79.8646C139.828 80.0333 139.839 80.2093 139.814 80.3822C139.669 80.7689 139.493 81.143 139.287 81.5008C138.393 83.1426 137.175 84.5853 135.707 85.7414C135.395 85.9476 135.07 86.1329 134.734 86.2958C134.393 86.2262 134.269 85.9804 134.452 85.6526C134.659 85.2825 134.898 84.9301 135.134 84.5778C136.049 83.1666 137.112 81.8581 138.307 80.6745Z" fill="white"/>
</g>
<defs>
<clipPath id="clip0_572_143">
<rect width="149.285" height="110.546" fill="white" transform="translate(0.959106 0.572998)"/>
</clipPath>
</defs>
</svg>
