<svg width="44" height="61" viewBox="0 0 44 61" fill="none" xmlns="http://www.w3.org/2000/svg">
<path d="M5.93311 59.4293V41.0888C5.93311 40.9135 6.07669 40.7715 6.25381 40.7715H14.4319C14.609 40.7715 14.7526 40.9135 14.7526 41.0888V59.4456C14.7526 59.7151 14.4344 59.8619 14.2257 59.6887L10.4726 56.5723C10.3517 56.4719 10.175 56.4735 10.0559 56.576L6.46437 59.6687C6.25683 59.8474 5.93311 59.7016 5.93311 59.4293Z" fill="url(#paint0_linear_971_96)" stroke="#FF3D00"/>
<path d="M0 2.22103C0 0.994389 1.0051 0 2.24496 0H41.2111C42.451 0 43.4561 0.994387 43.4561 2.22103V48.228C43.4561 49.4546 42.451 50.449 41.2111 50.449H2.24496C1.00511 50.449 0 49.4546 0 48.228V2.22103Z" fill="#001447"/>
<path d="M0 15.8645C0 14.6378 1.0051 13.6434 2.24496 13.6434H41.2111C42.451 13.6434 43.4561 14.6378 43.4561 15.8645V48.228C43.4561 49.4546 42.451 50.449 41.2111 50.449H2.24496C1.00511 50.449 0 49.4546 0 48.228V15.8645Z" fill="#001447"/>
<path d="M8.49879 6.7424C8.49879 7.83761 7.60138 8.72546 6.49436 8.72546C5.38734 8.72546 4.48993 7.83761 4.48993 6.7424C4.48993 5.64719 5.38734 4.75934 6.49436 4.75934C7.60138 4.75934 8.49879 5.64719 8.49879 6.7424Z" fill="#FF3D00"/>
<path d="M14.7526 6.7424C14.7526 7.83761 13.8193 8.72546 12.668 8.72546C11.5167 8.72546 10.5834 7.83761 10.5834 6.7424C10.5834 5.64719 11.5167 4.75934 12.668 4.75934C13.8193 4.75934 14.7526 5.64719 14.7526 6.7424Z" fill="#FFE500"/>
<path d="M20.8461 6.7424C20.8461 7.83761 19.9487 8.72546 18.8417 8.72546C17.7346 8.72546 16.8372 7.83761 16.8372 6.7424C16.8372 5.64719 17.7346 4.75934 18.8417 4.75934C19.9487 4.75934 20.8461 5.64719 20.8461 6.7424Z" fill="#64FF3D"/>
<path d="M0 13.6434H43.4561V16.0231H0V13.6434Z" fill="white"/>
<defs>
<linearGradient id="paint0_linear_971_96" x1="10.3429" y1="40.7715" x2="10.3429" y2="60.1261" gradientUnits="userSpaceOnUse">
<stop offset="0.567708" stop-color="#FF5823"/>
<stop offset="1" stop-color="#FF3D00"/>
</linearGradient>
</defs>
</svg>
