<svg width="463" height="463" viewBox="0 0 463 463" fill="none" xmlns="http://www.w3.org/2000/svg">
<rect width="463" height="463" rx="231.5" fill="white"/>
<rect x="140.5" y="78.5" width="140.825" height="164.173" rx="11.5" fill="#001447" stroke="white" stroke-width="3"/>
<rect x="150.291" y="86.0314" width="140.825" height="164.173" rx="11.5" fill="#001447" stroke="white" stroke-width="3"/>
<rect x="158.829" y="93.0629" width="141.825" height="165.173" rx="12" fill="#001447" stroke="white" stroke-width="4"/>
<rect x="169.12" y="101.094" width="140.825" height="164.173" rx="11.5" fill="#001447" stroke="white" stroke-width="3"/>
<rect x="177.5" y="109.5" width="140.825" height="164.173" rx="11.5" fill="white" stroke="white" stroke-width="3"/>
<path d="M201.817 304.229V245.522C201.817 244.961 202.273 244.507 202.835 244.507H228.772C229.334 244.507 229.789 244.961 229.789 245.522V304.281C229.789 305.144 228.78 305.614 228.118 305.059L216.215 295.084C215.832 294.763 215.271 294.768 214.893 295.096L203.502 304.995C202.844 305.567 201.817 305.1 201.817 304.229Z" fill="url(#paint0_linear_401_130)" stroke="#FF3D00"/>
<path d="M183 121.109C183 117.183 186.188 114 190.12 114H313.705C317.638 114 320.825 117.183 320.825 121.109V268.374C320.825 272.3 317.638 275.483 313.705 275.483H190.12C186.188 275.483 183 272.3 183 268.374V121.109Z" fill="#001447"/>
<path d="M183 164.781C183 160.854 186.188 157.672 190.12 157.672H313.705C317.638 157.672 320.825 160.854 320.825 164.781V268.374C320.825 272.3 317.638 275.483 313.705 275.483H190.12C186.188 275.483 183 272.3 183 268.374V164.781Z" fill="#001447"/>
<path d="M209.955 135.582C209.955 139.088 207.109 141.929 203.598 141.929C200.087 141.929 197.24 139.088 197.24 135.582C197.24 132.076 200.087 129.234 203.598 129.234C207.109 129.234 209.955 132.076 209.955 135.582Z" fill="#FF3D00"/>
<path d="M229.789 135.582C229.789 139.088 226.829 141.929 223.178 141.929C219.526 141.929 216.566 139.088 216.566 135.582C216.566 132.076 219.526 129.234 223.178 129.234C226.829 129.234 229.789 132.076 229.789 135.582Z" fill="#FFE500"/>
<path d="M249.116 135.582C249.116 139.088 246.269 141.929 242.758 141.929C239.247 141.929 236.401 139.088 236.401 135.582C236.401 132.076 239.247 129.234 242.758 129.234C246.269 129.234 249.116 132.076 249.116 135.582Z" fill="#64FF3D"/>
<path d="M183 157.672H320.825V165.289H183V157.672Z" fill="white"/>
<path d="M142.377 115.021L183.046 156.444V164.729L142.377 122.929V115.021Z" fill="white"/>
<path d="M79.16 350.4C77.48 350.4 75.96 350.12 74.6 349.56C73.24 348.973 72.08 348.187 71.12 347.2C70.16 346.187 69.4133 345.04 68.88 343.76C68.3733 342.453 68.12 341.08 68.12 339.64C68.12 337.64 68.56 335.813 69.44 334.16C70.3467 332.507 71.6267 331.187 73.28 330.2C74.96 329.187 76.9333 328.68 79.2 328.68C81.4933 328.68 83.4533 329.187 85.08 330.2C86.7067 331.187 87.9467 332.507 88.8 334.16C89.68 335.787 90.12 337.547 90.12 339.44C90.12 339.76 90.1067 340.093 90.08 340.44C90.0533 340.76 90.0267 341.027 90 341.24H73.8C73.9067 342.307 74.2133 343.24 74.72 344.04C75.2533 344.84 75.92 345.453 76.72 345.88C77.5467 346.28 78.4267 346.48 79.36 346.48C80.4267 346.48 81.4267 346.227 82.36 345.72C83.32 345.187 83.9733 344.493 84.32 343.64L88.92 344.92C88.4133 345.987 87.68 346.933 86.72 347.76C85.7867 348.587 84.68 349.24 83.4 349.72C82.12 350.173 80.7067 350.4 79.16 350.4ZM73.68 337.84H84.64C84.5333 336.773 84.2267 335.853 83.72 335.08C83.24 334.28 82.6 333.667 81.8 333.24C81 332.787 80.1067 332.56 79.12 332.56C78.16 332.56 77.28 332.787 76.48 333.24C75.7067 333.667 75.0667 334.28 74.56 335.08C74.08 335.853 73.7867 336.773 73.68 337.84ZM105.905 350.4C104.119 350.4 102.412 350.107 100.785 349.52C99.1586 348.933 97.7586 348.067 96.5853 346.92L98.5053 343.44C99.7586 344.453 100.985 345.2 102.185 345.68C103.412 346.16 104.585 346.4 105.705 346.4C106.745 346.4 107.572 346.213 108.185 345.84C108.825 345.467 109.145 344.907 109.145 344.16C109.145 343.653 108.972 343.267 108.625 343C108.279 342.707 107.772 342.453 107.105 342.24C106.465 342.027 105.679 341.787 104.745 341.52C103.199 341.013 101.905 340.52 100.865 340.04C99.8253 339.56 99.0386 338.96 98.5053 338.24C97.9986 337.493 97.7453 336.547 97.7453 335.4C97.7453 334.013 98.092 332.827 98.7853 331.84C99.5053 330.827 100.492 330.04 101.745 329.48C103.025 328.92 104.519 328.64 106.225 328.64C107.719 328.64 109.132 328.88 110.465 329.36C111.799 329.813 113.012 330.56 114.105 331.6L111.945 335C110.879 334.173 109.865 333.573 108.905 333.2C107.945 332.8 106.972 332.6 105.985 332.6C105.425 332.6 104.892 332.667 104.385 332.8C103.905 332.933 103.505 333.16 103.185 333.48C102.892 333.773 102.745 334.2 102.745 334.76C102.745 335.267 102.879 335.667 103.145 335.96C103.439 336.227 103.865 336.467 104.425 336.68C105.012 336.893 105.719 337.133 106.545 337.4C108.225 337.88 109.639 338.373 110.785 338.88C111.959 339.387 112.839 340.013 113.425 340.76C114.012 341.48 114.305 342.48 114.305 343.76C114.305 345.84 113.545 347.467 112.025 348.64C110.505 349.813 108.465 350.4 105.905 350.4ZM122.751 350V329.04H128.111V350H122.751ZM122.751 326.12V320.8H128.111V326.12H122.751ZM157.226 350H151.866V338.24C151.866 336.56 151.573 335.333 150.986 334.56C150.4 333.787 149.586 333.4 148.546 333.4C147.826 333.4 147.093 333.587 146.346 333.96C145.626 334.333 144.973 334.853 144.386 335.52C143.8 336.16 143.373 336.907 143.106 337.76V350H137.746V329.04H142.586V332.92C143.12 332.013 143.8 331.253 144.626 330.64C145.453 330 146.4 329.52 147.466 329.2C148.56 328.853 149.706 328.68 150.906 328.68C152.213 328.68 153.28 328.92 154.106 329.4C154.96 329.853 155.6 330.48 156.026 331.28C156.48 332.053 156.786 332.933 156.946 333.92C157.133 334.907 157.226 335.907 157.226 336.92V350ZM165.247 343.8C165.247 342.44 165.62 341.253 166.367 340.24C167.14 339.2 168.207 338.4 169.567 337.84C170.927 337.28 172.487 337 174.247 337C175.127 337 176.02 337.067 176.927 337.2C177.834 337.333 178.62 337.547 179.287 337.84V336.72C179.287 335.387 178.887 334.36 178.087 333.64C177.314 332.92 176.154 332.56 174.607 332.56C173.46 332.56 172.367 332.76 171.327 333.16C170.287 333.56 169.194 334.147 168.047 334.92L166.327 331.4C167.714 330.493 169.127 329.813 170.567 329.36C172.034 328.907 173.567 328.68 175.167 328.68C178.154 328.68 180.474 329.427 182.127 330.92C183.807 332.413 184.647 334.547 184.647 337.32V344C184.647 344.56 184.74 344.96 184.927 345.2C185.14 345.44 185.474 345.587 185.927 345.64V350C185.447 350.08 185.007 350.147 184.607 350.2C184.234 350.253 183.914 350.28 183.647 350.28C182.58 350.28 181.767 350.04 181.207 349.56C180.674 349.08 180.34 348.493 180.207 347.8L180.087 346.72C179.18 347.893 178.047 348.8 176.687 349.44C175.327 350.08 173.94 350.4 172.527 350.4C171.14 350.4 169.887 350.12 168.767 349.56C167.674 348.973 166.807 348.187 166.167 347.2C165.554 346.187 165.247 345.053 165.247 343.8ZM178.287 344.88C178.58 344.56 178.82 344.24 179.007 343.92C179.194 343.6 179.287 343.307 179.287 343.04V340.92C178.647 340.653 177.954 340.453 177.207 340.32C176.46 340.16 175.754 340.08 175.087 340.08C173.7 340.08 172.554 340.387 171.647 341C170.767 341.587 170.327 342.373 170.327 343.36C170.327 343.893 170.474 344.4 170.767 344.88C171.06 345.36 171.487 345.747 172.047 346.04C172.607 346.333 173.274 346.48 174.047 346.48C174.847 346.48 175.634 346.333 176.407 346.04C177.18 345.72 177.807 345.333 178.287 344.88ZM213.936 350H208.576V338.24C208.576 336.56 208.282 335.333 207.696 334.56C207.109 333.787 206.296 333.4 205.256 333.4C204.536 333.4 203.802 333.587 203.056 333.96C202.336 334.333 201.682 334.853 201.096 335.52C200.509 336.16 200.082 336.907 199.816 337.76V350H194.456V329.04H199.296V332.92C199.829 332.013 200.509 331.253 201.336 330.64C202.162 330 203.109 329.52 204.176 329.2C205.269 328.853 206.416 328.68 207.616 328.68C208.922 328.68 209.989 328.92 210.816 329.4C211.669 329.853 212.309 330.48 212.736 331.28C213.189 332.053 213.496 332.933 213.656 333.92C213.842 334.907 213.936 335.907 213.936 336.92V350ZM222.116 339.52C222.116 337.493 222.516 335.667 223.316 334.04C224.116 332.387 225.223 331.08 226.636 330.12C228.05 329.16 229.663 328.68 231.476 328.68C233.023 328.68 234.41 329.067 235.636 329.84C236.89 330.587 237.863 331.547 238.556 332.72V320.8H243.916V344C243.916 344.56 244.01 344.96 244.196 345.2C244.383 345.44 244.703 345.587 245.156 345.64V350C244.223 350.187 243.463 350.28 242.876 350.28C241.916 350.28 241.116 350.04 240.476 349.56C239.863 349.08 239.516 348.453 239.436 347.68L239.356 346.36C238.583 347.667 237.53 348.667 236.196 349.36C234.89 350.053 233.516 350.4 232.076 350.4C230.636 350.4 229.303 350.12 228.076 349.56C226.876 349 225.823 348.227 224.916 347.24C224.036 346.253 223.343 345.107 222.836 343.8C222.356 342.467 222.116 341.04 222.116 339.52ZM238.556 342.32V337.32C238.29 336.547 237.863 335.853 237.276 335.24C236.69 334.627 236.036 334.147 235.316 333.8C234.596 333.427 233.876 333.24 233.156 333.24C232.33 333.24 231.583 333.413 230.916 333.76C230.25 334.107 229.663 334.573 229.156 335.16C228.676 335.747 228.303 336.427 228.036 337.2C227.796 337.973 227.676 338.787 227.676 339.64C227.676 340.493 227.81 341.307 228.076 342.08C228.37 342.827 228.783 343.48 229.316 344.04C229.85 344.6 230.463 345.04 231.156 345.36C231.876 345.68 232.65 345.84 233.476 345.84C233.983 345.84 234.49 345.76 234.996 345.6C235.53 345.413 236.023 345.173 236.476 344.88C236.956 344.56 237.37 344.187 237.716 343.76C238.09 343.307 238.37 342.827 238.556 342.32ZM263.658 350.4C261.951 350.4 260.418 350.12 259.058 349.56C257.698 348.973 256.538 348.173 255.578 347.16C254.644 346.147 253.924 344.987 253.418 343.68C252.911 342.373 252.658 341 252.658 339.56C252.658 338.093 252.911 336.707 253.418 335.4C253.924 334.093 254.644 332.933 255.578 331.92C256.538 330.907 257.698 330.12 259.058 329.56C260.418 328.973 261.951 328.68 263.658 328.68C265.364 328.68 266.884 328.973 268.218 329.56C269.578 330.12 270.738 330.907 271.698 331.92C272.658 332.933 273.378 334.093 273.858 335.4C274.364 336.707 274.618 338.093 274.618 339.56C274.618 341 274.364 342.373 273.858 343.68C273.378 344.987 272.658 346.147 271.698 347.16C270.764 348.173 269.618 348.973 268.258 349.56C266.898 350.12 265.364 350.4 263.658 350.4ZM258.178 339.56C258.178 340.787 258.418 341.88 258.898 342.84C259.378 343.773 260.031 344.507 260.858 345.04C261.684 345.573 262.618 345.84 263.658 345.84C264.671 345.84 265.591 345.573 266.418 345.04C267.244 344.48 267.898 343.733 268.378 342.8C268.884 341.84 269.138 340.747 269.138 339.52C269.138 338.32 268.884 337.24 268.378 336.28C267.898 335.32 267.244 334.573 266.418 334.04C265.591 333.507 264.671 333.24 263.658 333.24C262.618 333.24 261.684 333.52 260.858 334.08C260.031 334.613 259.378 335.36 258.898 336.32C258.418 337.253 258.178 338.333 258.178 339.56ZM282.486 350V344.24H286.886V350H282.486Z" fill="#001447"/>
<path d="M308.95 348.92C308.497 349.107 307.95 349.32 307.31 349.56C306.67 349.8 305.977 349.987 305.23 350.12C304.51 350.28 303.777 350.36 303.03 350.36C302.043 350.36 301.137 350.187 300.31 349.84C299.483 349.493 298.817 348.947 298.31 348.2C297.83 347.427 297.59 346.427 297.59 345.2V333.16H294.83V329.04H297.59V322.24H302.95V329.04H307.35V333.16H302.95V343.4C302.977 344.12 303.177 344.64 303.55 344.96C303.923 345.28 304.39 345.44 304.95 345.44C305.51 345.44 306.057 345.347 306.59 345.16C307.123 344.973 307.55 344.813 307.87 344.68L308.95 348.92ZM326.027 350.4C324.347 350.4 322.827 350.12 321.467 349.56C320.107 348.973 318.947 348.187 317.987 347.2C317.027 346.187 316.281 345.04 315.747 343.76C315.241 342.453 314.987 341.08 314.987 339.64C314.987 337.64 315.427 335.813 316.307 334.16C317.214 332.507 318.494 331.187 320.147 330.2C321.827 329.187 323.801 328.68 326.067 328.68C328.361 328.68 330.321 329.187 331.947 330.2C333.574 331.187 334.814 332.507 335.667 334.16C336.547 335.787 336.987 337.547 336.987 339.44C336.987 339.76 336.974 340.093 336.947 340.44C336.921 340.76 336.894 341.027 336.867 341.24H320.667C320.774 342.307 321.081 343.24 321.587 344.04C322.121 344.84 322.787 345.453 323.587 345.88C324.414 346.28 325.294 346.48 326.227 346.48C327.294 346.48 328.294 346.227 329.227 345.72C330.187 345.187 330.841 344.493 331.187 343.64L335.787 344.92C335.281 345.987 334.547 346.933 333.587 347.76C332.654 348.587 331.547 349.24 330.267 349.72C328.987 350.173 327.574 350.4 326.027 350.4ZM320.547 337.84H331.507C331.401 336.773 331.094 335.853 330.587 335.08C330.107 334.28 329.467 333.667 328.667 333.24C327.867 332.787 326.974 332.56 325.987 332.56C325.027 332.56 324.147 332.787 323.347 333.24C322.574 333.667 321.934 334.28 321.427 335.08C320.947 335.853 320.654 336.773 320.547 337.84ZM354.812 350.4C353.106 350.4 351.572 350.12 350.212 349.56C348.852 348.973 347.692 348.173 346.732 347.16C345.772 346.12 345.026 344.947 344.492 343.64C343.986 342.333 343.732 340.96 343.732 339.52C343.732 337.547 344.172 335.747 345.052 334.12C345.959 332.467 347.239 331.147 348.892 330.16C350.546 329.173 352.506 328.68 354.772 328.68C357.039 328.68 358.986 329.173 360.612 330.16C362.239 331.147 363.452 332.44 364.252 334.04L359.012 335.64C358.559 334.867 357.959 334.28 357.212 333.88C356.466 333.453 355.639 333.24 354.732 333.24C353.719 333.24 352.786 333.507 351.932 334.04C351.106 334.547 350.452 335.28 349.972 336.24C349.492 337.173 349.252 338.267 349.252 339.52C349.252 340.747 349.492 341.84 349.972 342.8C350.479 343.733 351.146 344.48 351.972 345.04C352.799 345.573 353.719 345.84 354.732 345.84C355.372 345.84 355.972 345.733 356.532 345.52C357.119 345.307 357.639 345.013 358.092 344.64C358.546 344.267 358.879 343.84 359.092 343.36L364.332 344.96C363.852 346 363.146 346.933 362.212 347.76C361.306 348.587 360.226 349.24 358.972 349.72C357.746 350.173 356.359 350.4 354.812 350.4ZM391.911 350H386.551V338.24C386.551 336.613 386.231 335.4 385.591 334.6C384.977 333.8 384.124 333.4 383.031 333.4C382.391 333.4 381.711 333.587 380.991 333.96C380.271 334.333 379.617 334.853 379.031 335.52C378.471 336.16 378.057 336.907 377.791 337.76V350H372.431V320.8H377.791V332.92C378.564 331.587 379.617 330.547 380.951 329.8C382.284 329.053 383.737 328.68 385.311 328.68C386.671 328.68 387.777 328.92 388.631 329.4C389.484 329.853 390.151 330.48 390.631 331.28C391.111 332.053 391.444 332.933 391.631 333.92C391.817 334.88 391.911 335.88 391.911 336.92V350Z" fill="#FF3D00"/>
<defs>
<linearGradient id="paint0_linear_401_130" x1="215.803" y1="244.507" x2="215.803" y2="306.459" gradientUnits="userSpaceOnUse">
<stop offset="0.567708" stop-color="#FF5823"/>
<stop offset="1" stop-color="#FF3D00"/>
</linearGradient>
</defs>
</svg>
