<svg width="46" height="62" viewBox="0 0 46 62" fill="none" xmlns="http://www.w3.org/2000/svg">
<path d="M41.7109 60.0428C42.2653 60.0428 42.7969 59.788 43.1888 59.3344C43.5808 58.8808 43.801 58.2657 43.801 57.6242V18.9278L29.1706 1.99805H4.09005C3.53573 1.99805 3.00412 2.25286 2.61216 2.70642C2.2202 3.15998 2 3.77514 2 4.41658V57.6242C2 58.2657 2.2202 58.8808 2.61216 59.3344C3.00412 59.788 3.53573 60.0428 4.09005 60.0428H41.7109Z" stroke="#64FF3D" stroke-width="3" stroke-linecap="round" stroke-linejoin="round"/>
<path d="M29.1707 1.99805V18.9278H43.801" stroke="#64FF3D" stroke-width="3" stroke-linecap="round" stroke-linejoin="round"/>
<path d="M28.1256 31.0204L34.3958 38.276L28.1256 45.5316" stroke="#64FF3D" stroke-width="3" stroke-linecap="round" stroke-linejoin="round"/>
<path d="M17.6754 31.0204L11.4053 38.276L17.6754 45.5316" stroke="#64FF3D" stroke-width="3" stroke-linecap="round" stroke-linejoin="round"/>
</svg>
