<svg width="53" height="58" viewBox="0 0 53 58" fill="none" xmlns="http://www.w3.org/2000/svg">
<path d="M12.4502 2.41856H4.09005C2.93575 2.41856 2 3.50138 2 4.83709V53.2077C2 54.5434 2.93575 55.6262 4.09005 55.6262H12.4502C13.6045 55.6262 14.5403 54.5434 14.5403 53.2077V4.83709C14.5403 3.50138 13.6045 2.41856 12.4502 2.41856Z" stroke="#64FF3D" stroke-width="3" stroke-linecap="round" stroke-linejoin="round"/>
<path d="M2 14.5112H14.5403" stroke="#64FF3D" stroke-width="3" stroke-linecap="round" stroke-linejoin="round"/>
<path d="M24.9907 2.41856H16.6305C15.4762 2.41856 14.5404 3.50138 14.5404 4.83709V53.2077C14.5404 54.5434 15.4762 55.6262 16.6305 55.6262H24.9907C26.145 55.6262 27.0807 54.5434 27.0807 53.2077V4.83709C27.0807 3.50138 26.145 2.41856 24.9907 2.41856Z" stroke="#64FF3D" stroke-width="3" stroke-linecap="round" stroke-linejoin="round"/>
<path d="M14.5404 43.5336H27.0807" stroke="#64FF3D" stroke-width="3" stroke-linecap="round" stroke-linejoin="round"/>
<path d="M37.4097 1.62686L29.3003 4.14213C28.1806 4.48942 27.5162 5.82128 27.8164 7.11692L38.6846 54.0364C38.9847 55.332 40.1357 56.1008 41.2554 55.7536L49.3648 53.2383C50.4844 52.891 51.1488 51.5591 50.8487 50.2635L39.9804 3.34402C39.6803 2.04837 38.5294 1.27958 37.4097 1.62686Z" stroke="#64FF3D" stroke-width="3" stroke-linecap="round" stroke-linejoin="round"/>
<path d="M36.2767 44.5008L48.399 40.7218" stroke="#64FF3D" stroke-width="3" stroke-linecap="round" stroke-linejoin="round"/>
<path d="M29.7979 16.446L41.9201 12.6973" stroke="#64FF3D" stroke-width="3" stroke-linecap="round" stroke-linejoin="round"/>
</svg>
