<svg width="353" height="73" viewBox="0 0 353 73" fill="none" xmlns="http://www.w3.org/2000/svg">
<path d="M7.09963 71.5976V49.5019C7.09963 49.2908 7.27145 49.1196 7.48339 49.1196H17.2694C17.4813 49.1196 17.6531 49.2908 17.6531 49.5019V71.6172C17.6531 71.9419 17.2724 72.1187 17.0227 71.91L12.5317 68.1556C12.387 68.0347 12.1755 68.0366 12.033 68.1601L7.73535 71.8859C7.487 72.1012 7.09963 71.9255 7.09963 71.5976Z" fill="url(#paint0_linear_718_158)" stroke="#FF3D00"/>
<path d="M0 2.67577C0 1.19798 1.20272 0 2.68635 0H49.3137C50.7973 0 52 1.19798 52 2.67577V58.1024C52 59.5802 50.7973 60.7782 49.3137 60.7782H2.68635C1.20272 60.7782 0 59.5802 0 58.1024V2.67577Z" fill="#001447"/>
<path d="M0 19.1126C0 17.6348 1.20272 16.4369 2.68635 16.4369H49.3137C50.7973 16.4369 52 17.6348 52 19.1126V58.1024C52 59.5802 50.7973 60.7782 49.3137 60.7782H2.68635C1.20272 60.7782 0 59.5802 0 58.1024V19.1126Z" fill="#001447"/>
<path d="M10.1697 8.12287C10.1697 9.44232 9.09589 10.5119 7.77122 10.5119C6.44655 10.5119 5.37269 9.44232 5.37269 8.12287C5.37269 6.80342 6.44655 5.73379 7.77122 5.73379C9.09589 5.73379 10.1697 6.80342 10.1697 8.12287Z" fill="#FF3D00"/>
<path d="M17.6531 8.12287C17.6531 9.44232 16.5363 10.5119 15.1587 10.5119C13.781 10.5119 12.6642 9.44232 12.6642 8.12287C12.6642 6.80342 13.781 5.73379 15.1587 5.73379C16.5363 5.73379 17.6531 6.80342 17.6531 8.12287Z" fill="#FFE500"/>
<path d="M24.9447 8.12287C24.9447 9.44232 23.8708 10.5119 22.5461 10.5119C21.2215 10.5119 20.1476 9.44232 20.1476 8.12287C20.1476 6.80342 21.2215 5.73379 22.5461 5.73379C23.8708 5.73379 24.9447 6.80342 24.9447 8.12287Z" fill="#64FF3D"/>
<path d="M0 16.4369H52V19.3038H0V16.4369Z" fill="white"/>
<path d="M74.776 35.896V43.352H81.144V45.4H74.776V52.824H84.248V55H72.6V33.72H84.248V35.896H74.776ZM106.804 33.72V55H104.212L93.4918 37.816V55H91.2838V33.72H93.5878L104.628 51.384V33.72H106.804ZM125.811 39.896C125.704 39.0853 125.448 38.3813 125.043 37.784C124.211 36.504 122.835 35.864 120.915 35.864C119.315 35.864 118.152 36.2267 117.427 36.952C116.765 37.6347 116.435 38.5627 116.435 39.736C116.435 41.0373 116.797 41.9333 117.523 42.424C118.248 42.9147 119.261 43.2133 120.563 43.32C121.8 43.4267 122.845 43.5973 123.699 43.832C124.552 44.0453 125.267 44.344 125.843 44.728C127.357 45.6667 128.115 47.1387 128.115 49.144C128.115 49.9333 127.955 50.68 127.635 51.384C127.336 52.088 126.899 52.7173 126.323 53.272C125.021 54.552 123.24 55.192 120.979 55.192C118.696 55.192 116.893 54.5627 115.571 53.304C114.44 52.2587 113.757 50.8507 113.523 49.08H115.731C115.923 50.1467 116.371 51.0213 117.075 51.704C117.992 52.5573 119.304 52.984 121.011 52.984C122.461 52.984 123.635 52.632 124.531 51.928C125.448 51.2027 125.907 50.2747 125.907 49.144C125.907 48.4187 125.757 47.8213 125.459 47.352C125.181 46.8613 124.637 46.4667 123.827 46.168C123.016 45.8693 121.864 45.656 120.371 45.528C116.275 45.1653 114.227 43.2347 114.227 39.736C114.227 38.8613 114.365 38.0613 114.643 37.336C114.941 36.5893 115.357 35.9493 115.891 35.416C117.064 34.2427 118.728 33.656 120.883 33.656H120.915C123.112 33.6773 124.787 34.2853 125.939 35.48C127.112 36.6533 127.805 38.136 128.019 39.928H125.811V39.896ZM137.015 33.72V55H134.839V33.72H137.015ZM159.574 33.72V55H156.982L146.262 37.816V55H144.054V33.72H146.358L157.398 51.384V33.72H159.574ZM178.868 47.16H171.38L168.628 55H166.292L173.748 33.752H176.5L183.956 55H181.62L178.868 47.16ZM178.164 45.112L175.124 36.408L172.084 45.112H178.164ZM206.191 33.72V55H203.599L192.879 37.816V55H190.671V33.72H192.975L204.015 51.384V33.72H206.191ZM213.23 55V33.688H218.606C220.547 33.688 222.329 34.168 223.95 35.128C225.571 36.088 226.862 37.3787 227.822 39C228.782 40.6213 229.262 42.4027 229.262 44.344C229.262 46.2853 228.782 48.0667 227.822 49.688C226.862 51.3093 225.571 52.6 223.95 53.56C222.329 54.52 220.547 55 218.606 55H213.23ZM218.606 52.824C220.142 52.824 221.561 52.4507 222.862 51.704C224.163 50.936 225.187 49.9013 225.934 48.6C226.702 47.2987 227.086 45.88 227.086 44.344C227.086 42.808 226.702 41.3893 225.934 40.088C225.187 38.7867 224.163 37.7627 222.862 37.016C221.561 36.248 220.142 35.864 218.606 35.864H215.438V52.824H218.606ZM246.312 55.16C244.371 55.16 242.59 54.68 240.968 53.72C239.347 52.76 238.056 51.4693 237.096 49.848C236.136 48.2267 235.656 46.4453 235.656 44.504C235.656 42.5627 236.136 40.7813 237.096 39.16C238.056 37.5173 239.347 36.216 240.968 35.256C242.611 34.296 244.392 33.816 246.312 33.816C248.232 33.816 250.014 34.296 251.656 35.256C253.299 36.216 254.6 37.5173 255.56 39.16C256.52 40.8027 257 42.584 257 44.504C257 46.424 256.52 48.2053 255.56 49.848C254.6 51.4693 253.299 52.76 251.656 53.72C250.035 54.68 248.254 55.16 246.312 55.16ZM246.312 52.984C247.848 52.984 249.267 52.6107 250.568 51.864C251.87 51.096 252.894 50.0613 253.64 48.76C254.408 47.4587 254.792 46.04 254.792 44.504C254.792 42.968 254.408 41.5493 253.64 40.248C252.894 38.9467 251.87 37.9227 250.568 37.176C249.267 36.408 247.848 36.024 246.312 36.024C244.776 36.024 243.358 36.408 242.056 37.176C240.755 37.9227 239.72 38.9467 238.952 40.248C238.206 41.5493 237.832 42.968 237.832 44.504C237.832 46.04 238.206 47.4587 238.952 48.76C239.72 50.0613 240.755 51.096 242.056 51.864C243.358 52.6107 244.776 52.984 246.312 52.984ZM263.345 54.584C263.089 54.8187 262.779 54.936 262.417 54.936C262.075 54.936 261.777 54.808 261.521 54.552C261.286 54.296 261.169 53.9973 261.169 53.656C261.169 53.3147 261.286 53.016 261.521 52.76C261.777 52.504 262.075 52.376 262.417 52.376C262.779 52.376 263.089 52.504 263.345 52.76C263.601 52.9947 263.729 53.2933 263.729 53.656C263.729 54.0187 263.601 54.328 263.345 54.584Z" fill="#001447"/>
<path d="M283.581 35.864H278.109V55H275.933V35.864H270.461V33.72H283.581V35.864ZM292.485 35.896V43.352H298.853V45.4H292.485V52.824H301.957V55H290.309V33.72H301.957V35.896H292.485ZM317.831 55.192C315.868 55.192 314.065 54.712 312.423 53.752C310.78 52.792 309.479 51.4907 308.519 49.848C307.559 48.2053 307.079 46.4027 307.079 44.44C307.079 42.4773 307.559 40.6747 308.519 39.032C309.479 37.368 310.78 36.056 312.423 35.096C314.087 34.1147 315.889 33.624 317.831 33.624C319.409 33.624 320.913 33.9547 322.343 34.616C323.772 35.256 324.988 36.184 325.991 37.4L324.327 38.808C323.516 37.8693 322.535 37.144 321.383 36.632C320.252 36.0987 319.068 35.832 317.831 35.832C316.295 35.832 314.865 36.2267 313.543 37.016C312.241 37.784 311.207 38.8293 310.439 40.152C309.671 41.4747 309.287 42.904 309.287 44.44C309.287 45.976 309.671 47.4053 310.439 48.728C311.207 50.0293 312.241 51.064 313.543 51.832C314.865 52.6 316.295 52.984 317.831 52.984C319.068 52.984 320.252 52.728 321.383 52.216C322.535 51.6827 323.516 50.9467 324.327 50.008L325.991 51.416C324.988 52.6107 323.772 53.5387 322.343 54.2C320.913 54.8613 319.409 55.192 317.831 55.192ZM346.948 33.72V55H344.804V45.464H334.884V55H332.708V33.72H334.884V43.288H344.804V33.72H346.948Z" fill="#FF3D00"/>
<defs>
<linearGradient id="paint0_linear_718_158" x1="12.3764" y1="49.1196" x2="12.3764" y2="72.437" gradientUnits="userSpaceOnUse">
<stop offset="0.567708" stop-color="#FF5823"/>
<stop offset="1" stop-color="#FF3D00"/>
</linearGradient>
</defs>
</svg>
