<svg width="66" height="66" viewBox="0 0 66 66" fill="none" xmlns="http://www.w3.org/2000/svg">
<path d="M54.12 5.27979H11.88C8.2368 5.27979 5.28 8.23658 5.28 11.8798V54.1198C5.28 57.763 8.2368 60.7198 11.88 60.7198H54.12C57.7632 60.7198 60.72 57.763 60.72 54.1198V11.8798C60.72 8.23658 57.7632 5.27979 54.12 5.27979ZM22.44 26.3998V51.4798H14.52V26.3998H22.44ZM14.52 19.1002C14.52 17.2522 16.104 15.8398 18.48 15.8398C20.856 15.8398 22.3476 17.2522 22.44 19.1002C22.44 20.9482 20.9616 22.4398 18.48 22.4398C16.104 22.4398 14.52 20.9482 14.52 19.1002ZM51.48 51.4798H43.56C43.56 51.4798 43.56 39.2566 43.56 38.2798C43.56 35.6398 42.24 32.9998 38.94 32.947H38.8344C35.64 32.947 34.32 35.6662 34.32 38.2798C34.32 39.481 34.32 51.4798 34.32 51.4798H26.4V26.3998H34.32V29.779C34.32 29.779 36.8676 26.3998 41.9892 26.3998C47.2296 26.3998 51.48 30.0034 51.48 37.303V51.4798Z" fill="black"/>
</svg>
