<svg width="83" height="83" viewBox="0 0 83 83" fill="none" xmlns="http://www.w3.org/2000/svg">
<path d="M74.5314 24.0699C73.87 20.4192 70.7186 17.7606 67.0614 16.9306C61.5886 15.7699 51.46 14.9399 40.5014 14.9399C29.5493 14.9399 19.2586 15.7699 13.7793 16.9306C10.1286 17.7606 6.9707 20.2506 6.30929 24.0699C5.6414 28.2199 4.98 34.0299 4.98 41.4999C4.98 48.9699 5.6414 54.7799 6.4714 58.9299C7.13929 62.5806 10.2907 65.2392 13.9414 66.0692C19.7514 67.2299 29.7114 68.0599 40.67 68.0599C51.6286 68.0599 61.5886 67.2299 67.3986 66.0692C71.0493 65.2392 74.2007 62.7492 74.8686 58.9299C75.53 54.7799 76.36 48.8014 76.5286 41.4999C76.1914 34.0299 75.3614 28.2199 74.5314 24.0699ZM31.54 53.1199V29.8799L51.7907 41.4999L31.54 53.1199Z" fill="black"/>
</svg>
