<svg width="56" height="56" viewBox="0 0 56 56" fill="none" xmlns="http://www.w3.org/2000/svg">
<path d="M43.798 32.3955L35.4155 28.2191C35.0856 28.0553 34.7181 27.9811 34.3501 28.004C33.9822 28.0269 33.6268 28.1461 33.3199 28.3496L29.4718 30.9076C27.7054 29.94 26.2517 28.4915 25.2806 26.7313L27.8477 22.8969C28.052 22.591 28.1716 22.2369 28.1946 21.8703C28.2176 21.5037 28.1431 21.1375 27.9787 20.8087L23.7875 12.456C23.6138 12.1064 23.3452 11.8123 23.0124 11.607C22.6795 11.4017 22.2955 11.2934 21.904 11.2944C19.1251 11.2944 16.46 12.3944 14.4949 14.3525C12.5299 16.3105 11.426 18.9662 11.426 21.7353C11.4329 27.8252 13.8638 33.6637 18.1853 37.9699C22.5069 42.2761 28.3662 44.6984 34.4777 44.7053C35.8537 44.7053 37.2163 44.4352 38.4875 43.9105C39.7588 43.3858 40.9139 42.6168 41.8869 41.6472C42.8598 40.6777 43.6316 39.5267 44.1582 38.26C44.6848 36.9932 44.9558 35.6355 44.9558 34.2644C44.9561 33.8765 44.8479 33.4961 44.6434 33.166C44.4389 32.8359 44.1461 32.5691 43.798 32.3955ZM34.4777 40.5289C29.4773 40.5234 24.6833 38.5416 21.1475 35.0183C17.6116 31.495 15.6228 26.718 15.6172 21.7353C15.6168 20.287 16.1201 18.8832 17.0413 17.7629C17.9626 16.6427 19.245 15.8751 20.6703 15.5908L23.6775 21.5944L21.1182 25.3896C20.9269 25.6755 20.8094 26.004 20.7761 26.3459C20.7427 26.6878 20.7945 27.0327 20.927 27.3499C22.4263 30.9008 25.2613 33.7257 28.8248 35.2197C29.1441 35.3575 29.4928 35.414 29.8395 35.3839C30.1861 35.3538 30.5198 35.2382 30.8104 35.0475L34.6375 32.5051L40.6624 35.5016C40.375 36.9235 39.6013 38.2019 38.4734 39.1187C37.3455 40.0355 35.9333 40.5339 34.4777 40.5289ZM28.1909 0.853516C23.4875 0.852494 18.8639 2.06489 14.7702 4.3727C10.6765 6.6805 7.25216 10.0051 4.83048 14.0229C2.4088 18.0407 1.07228 22.6148 0.951014 27.2999C0.829747 31.9851 1.92786 36.6218 4.13848 40.7586L1.16532 49.6465C0.919047 50.3823 0.883307 51.172 1.06211 51.9269C1.24091 52.6819 1.62718 53.3723 2.17764 53.9208C2.72809 54.4693 3.42098 54.8542 4.17862 55.0324C4.93627 55.2106 5.72875 55.1749 6.46723 54.9295L15.3867 51.9669C19.0403 53.9033 23.0886 54.9849 27.2244 55.1295C31.3601 55.2741 35.4745 54.478 39.2554 52.8015C43.0362 51.1251 46.3841 48.6124 49.0449 45.4541C51.7057 42.2959 53.6095 38.5751 54.6117 34.5743C55.6139 30.5735 55.6883 26.3977 54.8291 22.364C53.97 18.3302 52.1999 14.5445 49.6532 11.2942C47.1065 8.04389 43.8502 5.41441 40.1315 3.60536C36.4127 1.7963 32.3292 0.855208 28.1909 0.853516ZM28.1909 50.9698C24.1384 50.9726 20.1571 49.9092 16.6493 47.8872C16.3925 47.7388 16.1069 47.6464 15.8116 47.6163C15.5162 47.5861 15.2178 47.6188 14.9361 47.7123L5.13913 50.9698L8.40567 41.2076C8.49983 40.9271 8.53311 40.6298 8.50331 40.3355C8.4735 40.0412 8.38129 39.7566 8.23278 39.5005C5.69177 35.1229 4.67157 30.0321 5.33043 25.0178C5.9893 20.0035 8.29039 15.3461 11.8768 11.7679C15.4631 8.18973 20.1343 5.89091 25.1656 5.22805C30.1969 4.56519 35.3071 5.57535 39.7035 8.10181C44.0999 10.6283 47.5366 14.5298 49.4807 19.2012C51.4247 23.8726 51.7673 29.0526 50.4553 33.9378C49.1433 38.823 46.2502 43.1402 42.2246 46.2198C38.199 49.2993 33.266 50.969 28.1909 50.9698Z" fill="#219653"/>
</svg>
