<svg width="636" height="59" viewBox="0 0 636 59" fill="none" xmlns="http://www.w3.org/2000/svg">
<path d="M0.44 37.962V31.426L51.008 10.098V18.44L12.652 34.694L51.008 50.174V58.516L0.44 37.962ZM85.9213 57.914H77.2353L57.4553 0.723999H65.6253L81.6213 46.734L97.6173 0.723999H105.701L85.9213 57.914ZM125.899 22.74V58H118.589V22.74H112.139V15H118.589V0.809998H125.899V15H132.349V22.74H125.899ZM144.919 39.768C144.919 41.144 145.406 42.5773 146.381 44.068C147.413 45.5587 148.588 46.82 149.907 47.852C152.315 49.744 155.124 50.69 158.335 50.69C163.437 50.69 167.594 48.2247 170.805 43.294L177.341 47.164C175.105 50.776 172.353 53.5567 169.085 55.506C165.817 57.4553 162.233 58.43 158.335 58.43C155.411 58.43 152.63 57.8853 149.993 56.796C147.355 55.6493 145.033 54.0727 143.027 52.066C141.02 50.0593 139.443 47.7373 138.297 45.1C137.207 42.4627 136.663 39.682 136.663 36.758C136.663 33.834 137.207 31.0533 138.297 28.416C139.443 25.7213 141.02 23.3707 143.027 21.364C144.976 19.3573 147.269 17.8093 149.907 16.72C152.601 15.6307 155.411 15.086 158.335 15.086C161.259 15.086 164.039 15.6307 166.677 16.72C169.371 17.8093 171.693 19.3573 173.643 21.364C177.885 25.7213 180.007 30.7667 180.007 36.5C180.007 37.532 179.921 38.6213 179.749 39.768H144.919ZM158.335 22.138C155.984 22.138 153.777 22.654 151.713 23.686C149.649 24.718 147.986 26.094 146.725 27.814C145.521 29.4767 144.919 31.254 144.919 33.146H171.751C171.751 31.254 171.12 29.4767 169.859 27.814C168.655 26.094 167.021 24.718 164.957 23.686C162.893 22.654 160.685 22.138 158.335 22.138ZM205.544 37.016L218.358 58H209.414L201.158 44.326L192.816 58H184.044L196.686 37.016L183.442 15H192.214L201.158 29.706L210.016 15H218.874L205.544 37.016Z" fill="#FF3D00"/>
<path d="M234.026 8.55V25.578H250.108V33.318H234.026V58H226.63V0.809998H257.934V8.55H234.026ZM280.578 23.256C279.202 22.6253 277.969 22.31 276.88 22.31C274.586 22.31 272.694 23.1127 271.204 24.718C269.598 26.438 268.796 28.416 268.796 30.652V58H261.4V30.652C261.4 27.556 262.174 24.718 263.722 22.138C265.327 19.558 267.506 17.5513 270.258 16.118C272.322 15.1433 274.529 14.656 276.88 14.656C278.772 14.656 280.578 15 282.298 15.688C284.018 16.376 285.824 17.494 287.716 19.042L280.578 23.256ZM308.669 58.43C305.745 58.43 302.964 57.8567 300.327 56.71C297.689 55.5633 295.367 53.9867 293.361 51.98C291.354 49.9733 289.777 47.6513 288.631 45.014C287.484 42.3767 286.911 39.596 286.911 36.672C286.911 33.6907 287.484 30.8527 288.631 28.158C289.777 25.4633 291.354 23.1127 293.361 21.106C295.367 19.0993 297.689 17.5513 300.327 16.462C302.964 15.3153 305.745 14.742 308.669 14.742C311.65 14.742 314.488 15.3153 317.183 16.462C319.877 17.5513 322.228 19.0993 324.235 21.106C326.241 23.1127 327.789 25.4633 328.879 28.158C330.025 30.8527 330.599 33.6907 330.599 36.672C330.599 39.596 330.025 42.3767 328.879 45.014C327.789 47.6513 326.241 49.9733 324.235 51.98C322.228 53.9867 319.877 55.5633 317.183 56.71C314.488 57.8567 311.65 58.43 308.669 58.43ZM308.669 22.396C304.827 22.396 301.531 23.772 298.779 26.524C297.46 27.8427 296.428 29.3907 295.683 31.168C294.937 32.9453 294.565 34.78 294.565 36.672C294.565 38.564 294.937 40.37 295.683 42.09C296.428 43.81 297.46 45.3293 298.779 46.648C300.097 47.9667 301.588 48.9987 303.251 49.744C304.971 50.4893 306.777 50.862 308.669 50.862C310.561 50.862 312.395 50.4893 314.173 49.744C315.95 48.9987 317.469 47.9667 318.731 46.648C319.992 45.3293 320.995 43.81 321.741 42.09C322.486 40.37 322.859 38.564 322.859 36.672C322.859 34.78 322.486 32.9453 321.741 31.168C320.995 29.3907 319.992 27.8427 318.731 26.524C317.469 25.2053 315.95 24.202 314.173 23.514C312.453 22.7687 310.618 22.396 308.669 22.396ZM364.903 58V32.2C364.903 29.62 363.957 27.384 362.065 25.492C360.231 23.6573 357.995 22.74 355.357 22.74C352.777 22.74 350.541 23.686 348.649 25.578C347.789 26.438 347.101 27.47 346.585 28.674C346.069 29.8207 345.811 30.996 345.811 32.2V58H338.329V16.032H345.811V19.558C346.901 18.2393 348.334 17.15 350.111 16.29C351.889 15.43 353.637 15 355.357 15C357.651 15 359.829 15.4587 361.893 16.376C364.015 17.236 365.878 18.4687 367.483 20.074C369.031 21.622 370.235 23.4567 371.095 25.578C372.013 27.642 372.471 29.8493 372.471 32.2V58H364.903ZM393.138 22.74V58H385.828V22.74H379.378V15H385.828V0.809998H393.138V15H399.588V22.74H393.138ZM407.364 58V0.809998H438.668V8.55H414.846V25.922H430.842V32.974H414.846V50.26H438.668V58H407.364ZM473.831 58V32.2C473.831 29.62 472.885 27.384 470.993 25.492C469.158 23.6573 466.922 22.74 464.285 22.74C461.705 22.74 459.469 23.686 457.577 25.578C456.717 26.438 456.029 27.47 455.513 28.674C454.997 29.8207 454.739 30.996 454.739 32.2V58H447.257V16.032H454.739V19.558C455.828 18.2393 457.262 17.15 459.039 16.29C460.816 15.43 462.565 15 464.285 15C466.578 15 468.757 15.4587 470.821 16.376C472.942 17.236 474.806 18.4687 476.411 20.074C477.959 21.622 479.163 23.4567 480.023 25.578C480.94 27.642 481.399 29.8493 481.399 32.2V58H473.831ZM524.339 58V51.378C522.505 53.5567 520.326 55.2767 517.803 56.538C515.338 57.7993 512.758 58.43 510.063 58.43C507.025 58.43 504.187 57.8853 501.549 56.796C498.912 55.6493 496.619 54.044 494.669 51.98C492.663 49.916 491.086 47.5653 489.939 44.928C488.85 42.2333 488.305 39.3953 488.305 36.414C488.305 33.4327 488.85 30.6233 489.939 27.986C491.086 25.2913 492.663 22.912 494.669 20.848C496.619 18.784 498.912 17.2073 501.549 16.118C504.187 14.9713 507.025 14.398 510.063 14.398C513.045 14.398 515.739 15 518.147 16.204C520.613 17.408 522.677 19.0707 524.339 21.192V0.895997H531.907V58H524.339ZM510.063 22.224C508.171 22.224 506.365 22.5967 504.645 23.342C502.925 24.03 501.435 25.0333 500.173 26.352C498.912 27.6707 497.909 29.2187 497.163 30.996C496.418 32.716 496.045 34.522 496.045 36.414C496.045 40.2553 497.421 43.6093 500.173 46.476C501.435 47.7947 502.925 48.8267 504.645 49.572C506.365 50.3173 508.171 50.69 510.063 50.69C511.955 50.69 513.761 50.3173 515.481 49.572C517.259 48.8267 518.778 47.7947 520.039 46.476C522.791 43.6093 524.167 40.2553 524.167 36.414C524.167 34.522 523.795 32.716 523.049 30.996C522.304 29.2187 521.301 27.6707 520.039 26.352C518.778 25.0333 517.259 24.03 515.481 23.342C513.761 22.5967 511.955 22.224 510.063 22.224ZM548.22 58H539.62L569.806 0.723999H578.406L548.22 58ZM585.307 58.516V50.174L623.663 34.694L585.307 18.44V10.098L635.875 31.426V37.962L585.307 58.516Z" fill="#64FF3D"/>
</svg>
