<svg width="1781" height="964" viewBox="0 0 1781 964" fill="none" xmlns="http://www.w3.org/2000/svg">
<path d="M32.775 42.1073C32.775 31.0616 41.7293 22.1072 52.775 22.1072H1760.78C1771.82 22.1072 1780.78 31.0615 1780.78 42.1072V943.107C1780.78 954.153 1771.82 963.107 1760.78 963.107H52.775C41.7293 963.107 32.775 954.153 32.775 943.107V42.1073Z" fill="#110000" fill-opacity="0.2"/>
<path d="M0 20C0 8.95432 8.95431 0 20 0H1728C1739.05 0 1748 8.9543 1748 20V921C1748 932.046 1739.05 941 1728 941H20C8.95431 941 0 932.046 0 921V20Z" fill="#001447"/>
<path d="M0 116.118C0 105.073 8.95431 96.1185 20 96.1185H1728C1739.05 96.1185 1748 105.073 1748 116.118V921C1748 932.046 1739.05 941 1728 941H20C8.95431 941 0 932.046 0 921V116.118Z" fill="#000513"/>
<path d="M0 120C0 108.954 8.95431 100 20 100H1728C1739.05 100 1748 108.954 1748 120V323C1748 334.046 1739.05 343 1728 343H20C8.95431 343 0 334.046 0 323V120Z" fill="#000513"/>
<circle cx="57.5" cy="52.5" r="15.5" fill="#FF3D00"/>
<ellipse cx="105" cy="52.5" rx="16" ry="15.5" fill="#FFE500"/>
<circle cx="152.5" cy="52.5" r="15.5" fill="#64FF3D"/>
</svg>
