<svg width="171" height="74" viewBox="0 0 171 74" fill="none" xmlns="http://www.w3.org/2000/svg">
<g clip-path="url(#clip0_570_111)">
<mask id="mask0_570_111" style="mask-type:luminance" maskUnits="userSpaceOnUse" x="0" y="0" width="170" height="74">
<path d="M0.176147 0.572998H169.934V73.3257H0.176147V0.572998Z" fill="white"/>
</mask>
<g mask="url(#mask0_570_111)">
<path d="M159.627 73.3237C165.319 73.3237 169.934 68.7075 169.934 63.0165C169.934 57.3236 165.321 52.7092 159.625 52.7092C153.933 52.7092 149.318 57.3236 149.318 63.0165C149.318 68.7094 153.933 73.3237 159.627 73.3237Z" fill="#0058FF"/>
<path d="M119.41 36.0271C116.793 36.0259 114.234 36.8016 112.054 38.257C109.88 39.7081 108.183 41.7755 107.178 44.1972C106.176 46.6144 105.913 49.2773 106.424 51.8453C106.935 54.4161 108.196 56.7757 110.046 58.6241C111.904 60.4754 114.264 61.7349 116.83 62.245C119.396 62.7552 122.055 62.4934 124.475 61.4923C126.891 60.4933 128.958 58.7971 130.416 56.6179C132.117 54.0737 132.883 51.0133 132.583 47.9628C132.282 44.9123 130.934 42.0624 128.77 39.903C126.282 37.4195 122.917 36.025 119.41 36.0271ZM119.53 73.3256C114.336 73.3256 109.935 72.1015 106.329 69.6516C102.724 67.2016 100.019 64.126 98.2131 60.4265C96.4237 56.7252 95.53 53.0312 95.53 49.3463C95.53 45.6614 96.4238 41.9746 98.2113 38.2897C100.001 34.603 102.706 31.5364 106.329 29.0956C109.953 26.6529 114.354 25.4325 119.53 25.4343C121.857 25.427 124.172 25.7435 126.412 26.3728C128.571 26.9767 130.633 27.8806 132.542 29.0537V4.77435C136.164 4.69069 139.779 3.15925 143.385 0.574707V72.3343H132.542V69.6661C130.634 70.8526 128.571 71.7654 126.412 72.378C124.174 73.0145 121.857 73.331 119.53 73.3256Z" fill="white"/>
<path d="M87.7881 72.4162C83.6322 72.4162 80.7193 71.2885 79.0476 69.0277C77.3758 66.7688 76.5327 64.0442 76.52 60.854V34.6739H67.6655V25.4343H76.52V12.0133C80.2797 11.9951 83.8512 10.129 87.3792 7.81909V25.4343H96.516V34.6739H87.3792V60.1574C87.3792 60.8667 87.3919 61.3905 87.419 61.7325C87.4769 62.369 87.5891 62.7674 87.7447 62.9292C87.9003 63.0929 88.2983 63.1693 88.9099 63.1693C89.8055 63.1693 91.1081 63.1402 92.8269 63.0966L93.737 63.0547C94.0283 63.022 94.3214 63.0075 94.6163 63.0147H96.5522V72.0742L95.5933 72.1179L93.974 72.2034C93.4493 72.2325 92.5393 72.2743 91.2493 72.3307C90.0909 72.3849 88.9315 72.4134 87.7719 72.4162M11.0752 72.3325H0.176147V32.7351C8.23643 32.7351 11.7916 25.6053 19.5208 25.6053C22.1045 25.5798 24.6773 25.9873 27.127 26.8039C29.3679 27.5477 31.431 28.7504 33.1862 30.336C34.9694 28.7587 37.0496 27.5575 39.3034 26.8039C41.7839 25.981 44.3826 25.576 46.9946 25.6053C51.2952 25.6053 54.8775 26.4656 57.7398 28.188C60.6165 29.905 62.7334 32.1167 64.1121 34.8576C65.4724 37.5577 66.1773 40.5432 66.1692 43.5698V72.3362H55.2267V44.6501C55.2267 37.9933 52.4296 34.6685 46.8372 34.6739C43.8284 34.6739 41.6988 35.6324 40.4794 37.5113C39.2581 39.3901 38.6502 41.7982 38.6502 44.6501V72.3325H27.7946V44.6501C27.7946 41.74 27.1614 39.3428 25.8931 37.4585C24.6302 35.6015 22.4428 34.663 19.3073 34.663C16.2859 34.663 14.1546 35.6215 12.9206 37.5404C11.6867 39.4574 11.0752 41.8237 11.0752 44.6501V72.3325Z" fill="white"/>
</g>
</g>
<defs>
<clipPath id="clip0_570_111">
<rect width="170.071" height="72.7527" fill="white" transform="translate(0.176147 0.572998)"/>
</clipPath>
</defs>
</svg>
