<svg width="302" height="95" viewBox="0 0 302 95" fill="none" xmlns="http://www.w3.org/2000/svg">
<g clip-path="url(#clip0_571_132)">
<mask id="mask0_571_132" style="mask-type:luminance" maskUnits="userSpaceOnUse" x="0" y="0" width="302" height="95">
<path d="M0.596069 0.186768H302V94.6708H0.596069V0.186768Z" fill="white"/>
</mask>
<g mask="url(#mask0_571_132)">
<path d="M138.977 62.0117C140.836 63.8614 140.836 66.8859 138.977 68.7355C133.326 74.3846 125.64 77.559 117.627 77.584H117.376C102.482 77.534 89.8481 66.7359 87.4871 52.1134C87.2359 50.5886 87.1104 49.0389 87.1104 47.4641V47.2142C87.1104 45.6645 87.2359 44.1147 87.4871 42.565C89.823 27.9924 102.482 17.1943 117.376 17.1443H117.627C125.615 17.1693 133.275 20.3187 138.927 25.9428L139.002 26.0178C140.836 27.8925 140.836 30.867 138.977 32.7166C137.118 34.5663 134.079 34.5663 132.22 32.7166C128.327 28.8173 123.028 26.6427 117.502 26.6427C107.857 26.6427 99.4679 33.2416 97.2576 42.59C96.8809 44.1397 96.705 45.7394 96.705 47.3642C96.705 48.9639 96.8809 50.5636 97.2576 52.1384C99.4679 61.4868 107.857 68.0857 117.502 68.0857C122.977 68.0857 128.252 65.936 132.12 62.1117L132.195 62.0367C134.079 60.162 137.093 60.162 138.977 62.0117Z" fill="white"/>
<path d="M205.914 17.1443C203.276 17.1443 201.116 19.2689 201.116 21.9185V25.3679C195.515 20.1188 188.131 17.1943 180.445 17.1693H180.194C165.3 17.2193 152.666 28.0174 150.305 42.64C150.054 44.1647 149.928 45.7144 149.928 47.2892V47.5391C149.928 49.0889 150.054 50.6386 150.305 52.1883C152.641 66.8109 165.3 77.609 180.194 77.659H180.445C188.131 77.634 195.54 74.7095 201.116 69.4604V72.9098C201.116 75.5344 203.251 77.684 205.914 77.684C208.551 77.684 210.711 75.5594 210.711 72.9098V21.9185C210.711 19.2689 208.576 17.1443 205.914 17.1443ZM200.589 52.1384C199.71 55.8377 197.826 59.2372 195.139 61.9367L194.988 62.0867C191.095 65.936 185.845 68.0857 180.37 68.0607C170.725 68.0607 162.336 61.4618 160.125 52.1134C159.749 50.5636 159.573 48.9639 159.573 47.3392C159.573 45.7394 159.749 44.1397 160.125 42.565C162.336 33.2166 170.725 26.6177 180.37 26.6177C190.015 26.6177 198.404 33.2166 200.614 42.565C200.991 44.1147 201.167 45.7144 201.167 47.3392C201.141 48.9889 200.941 50.5886 200.589 52.1384Z" fill="white"/>
<path d="M284.957 47.2642C284.957 45.7144 284.831 44.1647 284.58 42.615C283.525 36.0161 280.285 29.9421 275.387 25.3429C269.786 20.0938 262.402 17.1693 254.716 17.1443H254.465C246.779 17.1693 239.37 20.0938 233.794 25.3429V21.9185C233.768 19.2689 231.633 17.1443 228.996 17.1443C226.359 17.1443 224.199 19.2689 224.199 21.9185V72.8598C224.199 75.4844 226.334 77.634 228.996 77.634C231.633 77.634 233.794 75.5094 233.794 72.8598V47.3642C233.794 45.7644 233.969 44.1647 234.346 42.59C236.556 33.2416 244.945 26.6427 254.59 26.6427C264.235 26.6427 272.624 33.2416 274.835 42.59C275.211 44.1397 275.387 45.7394 275.387 47.3642V72.8348C275.387 75.4594 277.522 77.609 280.185 77.609C282.822 77.609 284.982 75.4844 284.982 72.8348V47.3642C284.957 47.3392 284.957 47.2892 284.957 47.2642Z" fill="white"/>
<path d="M77.9426 42.14C77.6663 40.5653 77.2645 38.9906 76.737 37.4658C72.4922 25.3429 61.0389 17.1943 48.1539 17.1443H47.9027C33.0083 17.2193 20.3494 27.9924 18.0135 42.615C17.7623 44.1397 17.6367 45.6894 17.6367 47.2642V47.5141C17.6367 47.7641 17.6367 48.039 17.6618 48.289C17.687 49.5888 17.8125 50.8886 18.0135 52.1634C18.3149 54.038 18.7921 55.8627 19.42 57.6624C23.7653 69.6104 35.1181 77.584 47.8776 77.634H48.1287C56.116 77.609 63.7766 74.4346 69.4531 68.8105L69.5033 68.7605L69.5787 68.6855C71.3871 66.8109 71.362 63.8364 69.5033 62.0117C67.6446 60.162 64.6055 60.162 62.7217 62.0117L62.6464 62.0867C58.7532 65.936 53.5038 68.0857 48.0283 68.0607C41.5481 68.0607 35.4447 65.0612 31.5013 59.937C29.8185 57.7624 30.6976 55.5378 33.4102 55.0629L68.8 48.589L73.7732 47.6891L74.4262 47.5641C76.8375 46.9392 78.3696 44.5896 77.9426 42.14ZM30.8483 45.8644C28.6631 46.2644 27.2565 44.8146 27.7589 42.665V42.615C29.9692 33.2666 38.3582 26.6677 48.0032 26.6677C54.6592 26.6677 60.8882 29.8171 64.8064 35.1662C66.3888 37.3159 65.4846 39.5155 62.8473 39.9904L30.8483 45.8644Z" fill="white"/>
</g>
</g>
<defs>
<clipPath id="clip0_571_132">
<rect width="301.404" height="94.484" fill="white" transform="translate(0.596069 0.186768)"/>
</clipPath>
</defs>
</svg>
