<svg width="254" height="85" viewBox="0 0 254 85" fill="none" xmlns="http://www.w3.org/2000/svg">
<g clip-path="url(#clip0_571_124)">
<path d="M234.555 27.11C234.539 23.3501 233.879 19.8525 232.59 16.6198C231.303 13.4027 229.504 10.5798 227.208 8.14876C224.897 5.72071 222.19 3.83244 219.086 2.48699C215.998 1.12341 212.631 0.43457 208.999 0.418457C205.432 0.43457 202.115 1.1073 199.01 2.43512C195.947 3.75009 193.176 5.65267 190.854 8.03396C188.509 10.4474 186.677 13.2546 185.357 16.505C184.036 19.7387 183.358 23.268 183.342 27.11C183.358 30.9172 184.035 34.4465 185.34 37.6641C186.661 40.8817 188.476 43.7045 190.804 46.0848C193.098 48.4685 195.848 50.3717 198.893 51.6821C201.965 53.0124 205.266 53.6857 208.801 53.7023C211.227 53.6857 213.522 53.3085 215.701 52.5527C217.859 51.8096 219.887 50.7348 221.711 49.3673C223.526 48.0058 225.093 46.397 226.431 44.5419V52.4208H234.554V27.11H234.555ZM226.233 27.11C226.218 29.7354 225.756 32.1826 224.865 34.4465C223.972 36.729 222.735 38.7145 221.149 40.4225C219.564 42.1446 217.732 43.4926 215.668 44.4432C213.589 45.412 211.36 45.904 208.999 45.9216C206.605 45.9045 204.376 45.4292 202.296 44.4765C200.216 43.5238 198.384 42.2121 196.814 40.5036C195.244 38.7961 194.009 36.8096 193.116 34.5286C192.224 32.2627 191.779 29.7848 191.763 27.11C191.779 24.4332 192.224 21.9553 193.116 19.6571C194.009 17.3595 195.244 15.3403 196.814 13.6157C198.384 11.8931 200.216 10.5446 202.296 9.57831C204.376 8.609 206.606 8.11654 208.999 8.09992C211.343 8.11654 213.556 8.609 215.618 9.59392C217.683 10.5622 219.515 11.9248 221.116 13.6474C222.701 15.3881 223.939 17.4073 224.847 19.6883C225.756 21.988 226.218 24.4508 226.233 27.11ZM61.5381 32.4278C61.5548 34.9722 62.084 37.2371 63.1399 39.1908C64.1969 41.1607 65.6828 42.704 67.5971 43.8209C69.5301 44.9357 71.7909 45.5097 74.4162 45.5263C77.0745 45.5102 79.3686 44.9357 81.3002 43.8209C83.2312 42.7035 84.7348 41.1607 85.7902 39.1908C86.8487 37.2371 87.3754 34.9722 87.3926 32.4278V1.69845H95.7123V32.4278C95.6961 35.6449 95.1532 38.5352 94.08 41.1441C92.9887 43.7378 91.4866 45.9528 89.5561 47.8094C87.624 49.6805 85.3795 51.093 82.8023 52.094C80.227 53.095 77.4371 53.587 74.4162 53.6026C71.3953 53.587 68.6059 53.095 66.0286 52.094C63.4544 51.093 61.2089 49.6805 59.2759 47.8094C57.3453 45.9523 55.8432 43.7378 54.7539 41.1441C53.6792 38.5352 53.1358 35.6449 53.1196 32.4278V10.0708C53.1196 5.46541 56.9078 1.69895 61.5396 1.69895V22.3953H61.5381V32.4278ZM8.80918 21.6919C8.82538 19.1475 9.35309 16.8811 10.4105 14.9284C11.4669 12.9575 12.9528 11.4152 14.8677 10.2979C16.7997 9.18303 19.0614 8.60849 21.6863 8.59288C24.3451 8.60799 26.6397 9.18253 28.5697 10.2979C30.5033 11.4152 32.0054 12.9575 33.0618 14.9284C34.1192 16.8811 34.6454 19.1475 34.6632 21.6919V52.4213H42.9834V21.6919C42.9677 18.4743 42.4232 15.585 41.3496 12.9747C40.2603 10.3804 38.7587 8.16588 36.8261 6.30984C34.8956 4.4392 32.6496 3.02678 30.0738 2.02575C27.4981 1.02472 24.7077 0.531753 21.6863 0.516143C18.6659 0.531753 15.876 1.02421 13.2982 2.02575C10.7245 3.02728 8.47898 4.4392 6.54694 6.30984C4.6159 8.16588 3.1123 10.3804 2.02499 12.9747C0.950839 15.585 0.406422 18.4743 0.389709 21.6919V44.05C0.389709 48.6548 4.17784 52.4213 8.81019 52.4213V31.7249H8.80918V21.6919Z" fill="white"/>
<path d="M245.187 1.698C249.818 1.698 253.607 5.46496 253.607 10.0693V52.4213H245.187V1.698Z" fill="white"/>
<path d="M175.486 19.9199C175.469 17.1449 175.008 14.5844 174.066 12.2203C173.125 9.85724 171.805 7.78921 170.069 6.03237C168.353 4.27703 166.29 2.89734 163.914 1.91141C161.52 0.928006 158.878 0.434036 155.97 0.419434C153.66 0.434036 151.53 0.76335 149.598 1.45269C147.71 2.09775 145.954 3.07617 144.415 4.34098C142.901 5.5965 141.616 7.10175 140.617 8.79074C139.647 7.10048 138.385 5.59402 136.887 4.34098C135.385 3.09372 133.667 2.12491 131.736 1.45269C129.804 0.76335 127.674 0.434036 125.363 0.419434C122.474 0.434036 119.849 0.928006 117.473 1.91141C115.095 2.89734 113.031 4.27703 111.298 6.03237C109.564 7.78921 108.227 9.85724 107.286 12.2203C106.345 14.5844 105.866 17.1449 105.85 19.9199V44.0504C105.85 48.6553 109.638 52.4213 114.27 52.4213V31.7249H114.269V19.6243C114.285 17.4078 114.748 15.4384 115.657 13.6982C116.564 11.9741 117.834 10.6125 119.487 9.62762C121.154 8.62558 123.102 8.11651 125.363 8.10039C127.625 8.11651 129.571 8.62558 131.241 9.62762C132.893 10.6125 134.162 11.9741 135.071 13.6982C135.979 15.4384 136.442 17.4078 136.459 19.6243V52.4207H144.876V19.6243C144.894 17.4078 145.356 15.4384 146.265 13.6982C147.172 11.9741 148.444 10.6125 150.095 9.62762C151.762 8.62558 153.71 8.11651 155.971 8.10039C158.233 8.11651 160.183 8.62558 161.849 9.62762C163.501 10.6125 164.771 11.9741 165.68 13.6982C166.588 15.4384 167.05 17.4078 167.065 19.6243V52.4207H175.486L175.486 19.9199ZM180.218 73.4258C180.214 72.9026 180.128 72.4187 179.949 71.9721C179.78 71.5357 179.524 71.1377 179.196 70.8019C178.865 70.4666 178.469 70.2018 178.031 70.0239C177.578 69.8376 177.08 69.7439 176.529 69.7409C176.093 69.7439 175.691 69.8069 175.325 69.9368C174.968 70.0587 174.636 70.2436 174.345 70.4826C174.059 70.7204 173.817 71.0048 173.628 71.3235C173.445 71.0037 173.206 70.7189 172.922 70.4826C172.634 70.2439 172.304 70.059 171.949 69.9368C171.584 69.8069 171.181 69.7439 170.745 69.7409C170.199 69.7439 169.702 69.8371 169.253 70.0239C168.815 70.2025 168.418 70.4671 168.086 70.8019C167.756 71.1368 167.498 71.5349 167.328 71.9721C167.15 72.4187 167.06 72.9026 167.056 73.4258V79.5695H168.648V73.3704C168.651 72.9525 168.739 72.5789 168.91 72.2506C169.074 71.9321 169.325 71.6659 169.634 71.4822C169.949 71.2923 170.318 71.1966 170.746 71.1931C171.171 71.1966 171.541 71.2923 171.856 71.4822C172.168 71.6675 172.407 71.9253 172.579 72.2506C172.752 72.5784 172.84 72.9525 172.842 73.3704V79.5695H174.432V73.3704C174.436 72.9525 174.525 72.5789 174.696 72.2506C174.86 71.932 175.111 71.6657 175.419 71.4822C175.735 71.2923 176.104 71.1966 176.53 71.1931C176.958 71.1966 177.326 71.2923 177.642 71.4822C177.953 71.6675 178.193 71.9253 178.365 72.2506C178.538 72.5784 178.624 72.9525 178.627 73.3704V79.5695H180.219V73.4258H180.218ZM187.445 73.5749L191.171 69.9836H188.829L184.43 74.2828V66.6507H182.838V79.5695H184.43V76.4793L186.283 74.6922L189.578 79.5695H191.507L187.445 73.5749ZM196.618 78.1183C196.332 78.1405 196.045 78.1236 195.763 78.0679C195.507 78.0177 195.266 77.9122 195.055 77.7588C194.849 77.6067 194.686 77.3922 194.571 77.1157C194.453 76.8398 194.393 76.4929 194.391 76.0704V71.4917H196.581V69.9841H194.391V66.6512H192.819V76.0704C192.822 76.6817 192.912 77.2185 193.097 77.6832C193.28 78.146 193.54 78.5317 193.876 78.8323C194.213 79.1364 194.613 79.3494 195.077 79.4768C195.542 79.6047 196.054 79.6349 196.619 79.57L196.618 78.1183ZM211.258 66.6507V71.3608C210.997 71.0313 210.689 70.7414 210.343 70.5003C209.635 70.0055 208.791 69.7405 207.925 69.7414C207.282 69.74 206.645 69.869 206.054 70.1206C205.48 70.3659 204.96 70.7222 204.525 71.169C204.081 71.6274 203.73 72.1666 203.492 72.7571C203.246 73.3644 203.116 74.0296 203.114 74.7486C203.116 75.4737 203.246 76.1424 203.495 76.7522C203.734 77.3482 204.087 77.8922 204.535 78.3539C204.974 78.8038 205.497 79.1635 206.075 79.4124C206.672 79.6659 207.315 79.7956 207.964 79.7935C208.651 79.7905 209.286 79.6601 209.87 79.4068C210.449 79.1572 210.971 78.7937 211.405 78.3383C211.844 77.8744 212.19 77.3307 212.423 76.7371C212.666 76.1293 212.791 75.4661 212.793 74.7486V66.6507H211.258ZM211.221 74.7486C211.221 75.2282 211.133 75.7038 210.959 76.1515C210.795 76.5712 210.556 76.958 210.254 77.2935C209.96 77.6128 209.607 77.8728 209.214 78.0594C208.824 78.2454 208.396 78.3417 207.963 78.3413C207.526 78.342 207.093 78.2478 206.696 78.0654C206.302 77.8856 205.949 77.6271 205.66 77.3061C205.358 76.9725 205.121 76.5859 204.961 76.1661C204.79 75.7131 204.703 75.2329 204.706 74.7491C204.704 74.272 204.791 73.7987 204.961 73.3528C205.122 72.937 205.359 72.5545 205.66 72.2249C205.95 71.9061 206.303 71.6491 206.696 71.4696C207.094 71.2892 207.526 71.1953 207.963 71.1941C208.399 71.1952 208.829 71.2907 209.224 71.4741C209.614 71.6529 209.96 71.9081 210.259 72.2304C210.562 72.561 210.8 72.9451 210.961 73.3629C211.13 73.7904 211.217 74.2521 211.221 74.7486ZM216.688 66.6507H215.096V68.5309H216.688V66.6507ZM216.688 69.9836H215.096V79.5695H216.688V69.9836ZM228.408 74.7859C228.404 74.0764 228.281 73.4152 228.036 72.8034C227.802 72.2105 227.458 71.6671 227.02 71.2022C226.586 70.7458 226.064 70.3815 225.484 70.1312C224.9 69.8754 224.264 69.7439 223.577 69.7414C222.928 69.7395 222.285 69.8698 221.689 70.1241C221.11 70.3719 220.586 70.7313 220.148 71.1815C219.7 71.6432 219.346 72.1872 219.107 72.7833C218.859 73.3941 218.731 74.0608 218.728 74.7864C218.731 75.5069 218.859 76.1741 219.105 76.7819C219.355 77.3897 219.698 77.9239 220.139 78.3731C220.572 78.8239 221.092 79.1841 221.668 79.4325C222.258 79.6855 222.895 79.8148 223.539 79.8127C224.236 79.8066 224.867 79.6646 225.427 79.3822C225.98 79.1052 226.462 78.7051 226.834 78.2129V79.1248C226.834 79.4733 226.796 79.8207 226.722 80.1667C226.644 80.509 226.522 80.8399 226.359 81.1516C226.193 81.4611 225.974 81.7401 225.713 81.9764C225.433 82.225 225.107 82.4178 224.753 82.5444C224.379 82.6803 223.941 82.7513 223.446 82.7543C223.228 82.7555 223.011 82.7371 222.797 82.6995C222.52 82.6567 222.249 82.5806 221.991 82.4729C221.701 82.3533 221.433 82.1856 221.199 81.9769C220.953 81.7599 220.744 81.4734 220.582 81.1168H218.897C219.073 81.7714 219.371 82.3349 219.797 82.8057C220.232 83.2828 220.77 83.656 221.371 83.8974C221.994 84.1512 222.684 84.2785 223.446 84.2826C224.192 84.2785 224.87 84.1552 225.476 83.909C226.068 83.6731 226.603 83.3138 227.044 82.8551C227.48 82.3999 227.814 81.8565 228.052 81.2261C228.285 80.5972 228.404 79.8963 228.408 79.1259V74.7859H228.408ZM226.835 74.7859C226.836 75.2604 226.748 75.731 226.576 76.1736C226.415 76.5908 226.177 76.974 225.873 77.303C225.583 77.6227 225.23 77.881 224.837 78.0624C224.443 78.2463 224.013 78.3416 223.577 78.3413C223.14 78.3425 222.708 78.2494 222.311 78.0684C221.917 77.8908 221.565 77.6354 221.274 77.3177C220.973 76.9882 220.736 76.6059 220.575 76.1902C220.406 75.7612 220.322 75.2924 220.319 74.7864C220.322 74.2813 220.406 73.8125 220.575 73.3785C220.744 72.9444 220.978 72.5622 221.274 72.2355C221.565 71.915 221.917 71.656 222.311 71.4736C222.707 71.2897 223.14 71.1941 223.577 71.1936C224.01 71.1943 224.438 71.2908 224.829 71.4761C225.222 71.6627 225.574 71.923 225.867 72.2425C226.17 72.5772 226.409 72.9636 226.574 73.383C226.748 73.8305 226.836 74.3062 226.835 74.7859ZM232.47 66.6507H230.878V68.5309H232.47V66.6507ZM232.47 69.9836H230.878V79.5695H232.47V69.9836ZM238.797 78.1183C238.511 78.1404 238.224 78.1235 237.942 78.0679C237.687 78.0174 237.445 77.9119 237.235 77.7588C237.029 77.6067 236.867 77.3922 236.751 77.1157C236.633 76.8398 236.573 76.4929 236.57 76.0704V71.4917H238.761V69.9841H236.57V67.9352H234.998V76.0704C235.001 76.6817 235.091 77.2185 235.276 77.6832C235.46 78.146 235.719 78.5317 236.056 78.8323C236.392 79.1364 236.792 79.3494 237.258 79.4768C237.723 79.6047 238.234 79.6349 238.798 79.57V78.1183H238.797ZM249.563 74.7859C249.56 74.0764 249.435 73.4152 249.192 72.8034C248.957 72.2106 248.612 71.6673 248.175 71.2022C247.741 70.7454 247.219 70.381 246.64 70.1312C246.056 69.8754 245.419 69.7439 244.732 69.7414C244.092 69.7399 243.459 69.8666 242.87 70.114C242.281 70.3615 241.748 70.7246 241.303 71.1815C240.856 71.6436 240.503 72.1876 240.264 72.7833C240.014 73.3941 239.887 74.0608 239.884 74.7864C239.887 75.5069 240.014 76.1741 240.261 76.7819C240.511 77.3897 240.854 77.9239 241.293 78.3731C241.728 78.8237 242.248 79.1839 242.823 79.4325C243.415 79.6857 244.052 79.8151 244.696 79.8127C245.139 79.813 245.579 79.7396 245.999 79.5956C246.406 79.4553 246.79 79.2523 247.134 78.9939C247.477 78.7373 247.778 78.4299 248.027 78.0825V79.5705H249.562V74.7859H249.563ZM247.99 74.7859C247.99 75.2603 247.902 75.7307 247.731 76.1736C247.57 76.5906 247.332 76.9737 247.029 77.303C246.738 77.6224 246.386 77.8805 245.994 78.0624C245.599 78.2462 245.168 78.3415 244.732 78.3413C244.295 78.3423 243.863 78.2492 243.465 78.0684C243.073 77.8904 242.72 77.635 242.429 77.3177C242.128 76.9883 241.891 76.6059 241.73 76.1902C241.562 75.7612 241.478 75.2924 241.475 74.7864C241.478 74.2813 241.562 73.8125 241.73 73.3785C241.891 72.9581 242.128 72.5706 242.429 72.2355C242.72 71.9154 243.072 71.6564 243.465 71.4736C243.862 71.2898 244.294 71.1943 244.732 71.1936C245.165 71.1942 245.592 71.2907 245.983 71.4761C246.373 71.6599 246.721 71.9172 247.023 72.2425C247.325 72.5772 247.564 72.9636 247.728 73.383C247.899 73.8186 247.986 74.2828 247.99 74.7859ZM252.015 79.5695H253.607V66.6507H252.015V79.5695Z" fill="white"/>
</g>
<defs>
<clipPath id="clip0_571_124">
<rect width="253.217" height="84.0907" fill="white" transform="translate(0.389709 0.304199)"/>
</clipPath>
</defs>
</svg>
