<svg width="243" height="115" viewBox="0 0 243 115" fill="none" xmlns="http://www.w3.org/2000/svg">
<g clip-path="url(#clip0_570_108)">
<path d="M85.597 34.0384H78.5414V6.14539H68.3021V0.143784H95.8129V6.14539H85.597V34.0384ZM105.384 18.8352V34.0384H98.3279V0.143784H105.384V12.997H118.572V0.143784H125.651V34.0384H118.572V18.8352H105.384ZM153.01 6.14016H135.247V13.2664H150.891V19.2628H135.247V28.048H152.997V34.0324H128.659V0.137817H153.01V6.14016ZM20.9458 39.2669H27.5339V73.0997H20.4781L6.69346 48.9726H6.60004V73.0997H0V39.2669H7.43054L20.8291 62.8165H20.9458V39.2669ZM46.9699 68.0148C50.7727 68.0148 56.1322 65.6529 56.1322 56.1813C56.1322 46.716 50.7727 44.3536 46.9699 44.3536C43.167 44.3536 37.7843 46.716 37.7843 56.1813C37.7843 65.6529 43.167 68.0148 46.9699 68.0148ZM46.9699 38.3639C51.4397 38.3639 63.1999 40.298 63.1999 56.1813C63.1999 72.0444 51.4397 73.9903 46.9699 73.9903C42.5 73.9903 30.7286 72.0444 30.7286 56.1813C30.7286 40.298 42.5 38.3639 46.9699 38.3639ZM112.991 73.0997H105.934V45.2392H95.7071V39.2609H123.171V45.2392H112.991V73.0997ZM132.766 57.9277V73.0997H125.721V39.2609H132.766V52.0729H145.942V39.2609H153.01V73.0997H145.942V57.9277H132.766ZM81.3492 54.159C85.0122 54.159 86.8024 52.8816 86.8024 49.535C86.8024 47.7529 85.9829 45.1159 81.852 45.1159H73.053V54.159H81.3492ZM66.1373 39.2669H83.2213C92.2079 39.2669 93.8469 45.9071 93.8469 48.8316C93.8469 52.5595 91.9509 55.7653 88.6157 56.8967C91.4011 58.1158 92.9105 59.1527 92.9105 65.4713C92.9105 70.4148 92.9105 71.6457 94.4079 72.2083V73.0997H86.5916C86.1356 71.5168 85.8421 69.7581 85.8421 66.2744C85.8421 61.6504 85.5739 59.8684 80.3308 59.8684H73.053V73.0997H66.1373V39.2669ZM49.802 113.2H42.5585V78.4677H67.2254V84.6222H49.802V92.4529H65.0489V98.6068H49.802V113.2M74.8433 100.048H83.666L79.3713 86.3104H79.2901L74.8433 100.048ZM70.4789 113.2H62.849L75.218 78.4677H83.5729L95.789 113.2H87.9027L85.6901 106.039H72.9011L70.4789 113.2M118.022 89.9558C117.46 87.8924 116.325 83.9654 110.357 83.9654C106.882 83.9654 101.745 86.2864 101.745 96.1097C101.745 102.334 104.214 107.961 110.357 107.961C114.36 107.961 117.168 105.687 118.022 101.431H125.266C123.814 108.969 118.9 114.244 110.205 114.244C100.985 114.244 94.3617 108.008 94.3617 96.0036C94.3617 83.8832 101.359 77.6832 110.311 77.6832C120.679 77.6832 124.879 84.8446 125.266 89.9558H118.022ZM153.126 84.6222H134.919V91.9127H150.974V98.0673H134.919V107.07H153.126V113.2H128.178V78.4677H153.126V84.6222ZM27.569 104.327H29.3358C30.8452 104.327 32.2147 104.244 32.2147 102.522C32.2147 101.068 30.9625 100.834 29.8157 100.834H27.569V104.327ZM25.8606 99.4618H30.0848C32.6943 99.4618 33.9229 100.493 33.9229 102.592C33.9229 104.573 32.6704 105.393 31.0443 105.581L34.1685 110.411H32.3428L29.3594 105.699H27.569V110.411H25.8606V99.4618ZM29.5116 112.943C33.8408 112.943 37.1874 109.484 37.1874 104.901C37.1874 100.412 33.8408 96.9537 29.5116 96.9537C25.1348 96.9537 21.7766 100.412 21.7766 104.901C21.7766 109.484 25.1348 112.943 29.5116 112.943ZM29.5116 95.5701C34.6129 95.5701 38.8962 99.6143 38.8962 104.901C38.8962 110.282 34.6129 114.326 29.5116 114.326C24.3861 114.326 20.08 110.282 20.08 104.901C20.08 99.6143 24.3861 95.5701 29.5116 95.5701ZM176.155 111.079V93.1328C176.155 85.067 169.614 78.5147 161.564 78.5147L159.937 78.4677V113.2H176.179V111.079H176.155ZM242.807 111.079V81.4102C242.807 36.5347 206.357 0.0206451 161.564 0.0206451H160.686L160.825 0.00348663H159.937V33.9974H162.195C188.501 34.3437 210.054 55.8478 210.359 82.2653L210.371 106.016H210.348V113.13H242.819V111.079H242.807Z" fill="white"/>
<path d="M205.245 112.216V82.7823C205.14 59.3465 186.453 40.1979 163.26 39.284V39.2489H162.558C162.231 39.2429 161.926 39.1966 161.599 39.1966H160.686L160.779 39.1548H159.937V73.0996H160.686V73.1463H161.564C172.434 73.1463 181.28 82.0087 181.28 92.8977L181.234 113.13H205.199V112.216H205.245" fill="white"/>
</g>
<defs>
<clipPath id="clip0_570_108">
<rect width="242.824" height="114.326" fill="white"/>
</clipPath>
</defs>
</svg>
